<svg width="108" height="332" viewBox="0 0 108 332" fill="none" xmlns="http://www.w3.org/2000/svg">
<path d="M38.1589 70.0784L80.6131 117.852M30.5911 76.7646L61.2615 111.24M23.0979 83.9381L47.3587 111.188M16.5786 91.6999L36.4304 113.787M77.3008 30.9445C74.9318 28.5914 72.2249 26.5544 69.2548 25.0222C57.5895 18.9989 42.2477 19.8462 30.9816 30.9445M77.3008 30.9445C78.6828 32.3713 79.9243 33.8333 80.986 35.3523C82.9032 38.1005 84.2851 40.9848 85.2459 43.9043C87.6457 51.2007 87.2552 58.7781 84.8379 65.3765C83.1313 70.0433 80.363 74.2051 77.0157 77.4363M77.3008 30.9445C77.3008 30.9445 77.3228 30.9665 77.3315 30.9753M77.3008 30.9445C77.3096 30.9533 77.3228 30.9665 77.3315 30.9753M24.3439 10.1659C37.5666 1.17489 53.8517 -1.18262 68.6319 3.00997C77.0727 5.407 84.9344 10.0035 91.6643 16.5536M84.5878 84.5527C99.6883 69.6438 103.088 42.5565 84.6449 23.5866C84.6537 23.5954 84.6668 23.6086 84.6756 23.6174M32.6267 61.1356C30.1305 53.0973 31.7844 44.4443 38.1457 38.0346M70.1235 38.0259C64.1219 32.0421 55.4924 29.8207 46.8586 32.5865M23.6419 23.591C41.3001 6.06991 68.3599 7.23331 84.6405 23.591M10.0155 83.622C-5.44472 60.262 0.4428 32.7138 16.6225 16.558M75.603 46.8413C78.266 54.5987 76.419 63.8444 70.1279 70.074M91.6643 91.6428C107.984 75.7329 113.556 47.3198 98.2625 24.4734M29.7049 75.8163C17.7193 62.1322 19.0705 42.7102 30.986 30.9445M22.3828 83.2489C5.26864 63.7302 8.30453 38.4341 23.6463 23.5866M45.4854 30.9138C41.6423 27.0549 35.4521 26.888 31.4115 30.5363C35.4564 26.888 41.6423 27.0549 45.4854 30.9138ZM45.4854 30.9138C49.4645 34.9089 49.4514 41.3843 45.4591 45.3662C42.0722 48.7422 36.7989 49.3173 32.7671 46.7491M23.6375 23.5822C27.5552 19.7057 27.5903 13.3839 23.7165 9.4635M23.7165 9.4635C19.8427 5.5431 13.5208 5.50797 9.6075 9.38009M23.7165 9.4635C19.8427 5.5431 13.5252 5.50797 9.6075 9.38009M9.6075 9.38009C5.69419 13.2522 5.65909 19.5784 9.52853 23.4988M9.6075 9.38009C5.6898 13.2522 5.6547 19.5784 9.52853 23.4988M9.52853 23.4988C9.76105 23.7315 10.0023 23.9554 10.2568 24.1661C10.0023 23.9554 9.75667 23.7315 9.52853 23.4988ZM24.1069 23.1301C26.1426 21.1194 29.4198 21.1282 31.4422 23.1564C33.4647 25.1847 33.4691 28.4641 31.4554 30.4967M83.978 9.97715C84.1974 9.70935 84.4299 9.45033 84.6756 9.20449M84.6756 9.20449C88.6503 5.22261 95.1082 5.22261 99.0829 9.19571M84.6756 9.20449C88.6503 5.22261 95.1082 5.21822 99.0829 9.19571M99.0829 9.19571C103.058 13.1732 103.058 19.6311 99.0829 23.613M99.0829 23.613C95.1082 27.5948 88.6503 27.5949 84.6756 23.6174M99.0829 23.613C95.1082 27.5905 88.6503 27.5949 84.6756 23.6174M77.3315 30.9753C81.3019 34.9659 81.2887 41.4282 77.3052 45.3969C73.3217 49.3656 66.8639 49.3525 62.8935 45.3618M62.8935 45.3618C59.5242 41.9726 58.9539 36.7044 61.5247 32.6786C58.9539 36.7044 59.5242 41.977 62.8935 45.3618ZM85.0573 31.3792C87.0753 29.3685 87.0929 26.1022 85.0968 24.0608C87.0929 26.0978 87.0753 29.3641 85.0573 31.3792ZM85.0573 31.3792C83.0304 33.4074 79.7357 33.3986 77.7044 31.366M85.0573 31.3792C83.026 33.4074 79.7313 33.3986 77.7044 31.366M77.7044 31.366C77.6913 31.3528 77.6825 31.344 77.6694 31.3309M23.2778 99.1939C19.2372 102.899 12.9944 102.75 9.13369 98.8559M9.13369 98.8559C5.16773 94.852 5.19406 88.381 9.19073 84.4123M9.13369 98.8559C5.16335 94.852 5.18967 88.381 9.19073 84.4123M9.19073 84.4123C13.0382 80.5928 19.1978 80.4479 23.2207 84.083M31.043 62.7337C27.1341 66.5926 26.9937 72.8574 30.7227 76.8875C26.9937 72.8574 27.1385 66.5926 31.043 62.7337ZM31.043 62.7337C35.0353 58.7869 41.48 58.8308 45.424 62.8259M45.424 62.8259C49.368 66.8253 49.3241 73.27 45.3319 77.2168M45.424 62.8259C49.368 66.8209 49.3285 73.27 45.3319 77.2168M45.3319 77.2168C45.2266 77.3178 45.1257 77.4187 45.016 77.5153C45.1213 77.4187 45.2266 77.3178 45.3319 77.2168ZM23.2032 84.0742C23.2164 84.0874 23.2471 84.1181 23.2471 84.1181C23.2339 84.1049 23.2164 84.0874 23.2032 84.0742ZM23.2032 84.0742C21.1851 82.0328 21.2027 78.7358 23.2427 76.7207M23.2032 84.0742C21.1851 82.0372 21.2027 78.7402 23.2427 76.7207M23.2427 76.7207C25.2827 74.7012 28.5774 74.7188 30.5911 76.7602M23.2427 76.7207C25.2827 74.7012 28.573 74.7188 30.5911 76.7602M30.5911 76.7602C30.635 76.8041 30.6789 76.8524 30.7227 76.9007C30.6789 76.8524 30.635 76.8085 30.5911 76.7602ZM98.2362 83.8284C98.5038 84.0479 98.7626 84.2806 99.0083 84.5264M99.0083 84.5264C102.992 88.5039 103.005 94.9574 99.0434 98.9349M99.0083 84.5264C102.992 88.5039 103.009 94.9574 99.0434 98.9349M99.0434 98.9349C95.0775 102.912 88.6284 102.912 84.6449 98.9349M84.6449 98.9349C80.6701 94.9662 80.6438 88.5346 84.5878 84.5483C80.6438 88.5302 80.6701 94.9618 84.6449 98.9349ZM62.9155 77.1729C66.6884 80.9528 72.7382 81.1767 76.7744 77.6778C72.7382 81.1767 66.684 80.9572 62.9155 77.1729ZM62.9155 77.1729C58.9495 73.1954 58.9583 66.7463 62.933 62.782M62.9155 77.1729C58.9495 73.1954 58.9583 66.7507 62.933 62.782M62.933 62.782C66.2935 59.4279 71.5274 58.844 75.5416 61.3815C71.5274 58.8484 66.2935 59.4279 62.933 62.782ZM84.2237 84.9215C84.2588 84.8908 84.2895 84.86 84.3202 84.8249C84.2895 84.8557 84.2544 84.8908 84.2237 84.9215ZM84.2237 84.9215C82.1925 86.9542 78.8977 86.9585 76.8709 84.9303C74.844 82.902 74.8484 79.605 76.8797 77.5724M76.8797 77.5724C76.9104 77.5417 76.9455 77.5065 76.9762 77.4758C76.9455 77.5065 76.9104 77.5373 76.8797 77.5724ZM91.3616 16.4131C91.3352 16.5799 91.4493 16.7336 91.6116 16.7599C91.7783 16.7863 91.9319 16.6721 91.9582 16.5097C91.9845 16.3429 91.8705 16.1892 91.7082 16.1629C91.5414 16.1365 91.3879 16.2507 91.3616 16.4175V16.4131ZM91.5283 16.4395C91.5151 16.5141 91.5678 16.5843 91.6423 16.5931C91.7169 16.6063 91.7871 16.5536 91.7959 16.479C91.8091 16.4043 91.7564 16.3341 91.6818 16.3253C91.6072 16.3121 91.5371 16.3648 91.5283 16.4395ZM69.8208 37.9732C69.7945 38.1444 69.9085 38.3024 70.0752 38.3332C70.2419 38.3595 70.4043 38.2454 70.4306 38.0742C70.4569 37.9029 70.3429 37.7449 70.1761 37.7185C70.0094 37.6922 69.8471 37.8064 69.8208 37.9776V37.9732ZM69.9787 37.9995C69.9656 38.0829 70.0226 38.162 70.1016 38.1751C70.1849 38.1883 70.2639 38.1312 70.277 38.0478C70.2902 37.9644 70.2332 37.8854 70.1498 37.8722C70.0665 37.859 69.9875 37.9161 69.9787 37.9995ZM37.843 38.0303C37.843 38.2015 37.9834 38.342 38.1545 38.342C38.3256 38.342 38.466 38.2015 38.466 38.0303C38.466 37.859 38.3256 37.7185 38.1545 37.7185C37.9834 37.7185 37.843 37.859 37.843 38.0303ZM38.001 38.0303C38.001 38.1137 38.0668 38.1839 38.1501 38.1839C38.2335 38.1839 38.2993 38.1137 38.2993 38.0303C38.2993 37.9468 38.2335 37.8766 38.1501 37.8766C38.0668 37.8766 38.001 37.9468 38.001 38.0303ZM16.4163 16.3253C16.2891 16.4395 16.2759 16.6414 16.3944 16.7687C16.5084 16.896 16.7059 16.9092 16.8375 16.7907C16.9647 16.6765 16.9779 16.479 16.8594 16.3473C16.7454 16.22 16.5479 16.2068 16.4163 16.3253ZM16.5216 16.4439C16.4602 16.5009 16.4514 16.5975 16.5084 16.659C16.5655 16.7204 16.662 16.7248 16.7234 16.6678C16.7848 16.6107 16.7892 16.5141 16.7366 16.4526C16.6795 16.3912 16.583 16.3868 16.5216 16.4439ZM91.9758 91.5945C92.0021 91.7658 91.888 91.9238 91.7169 91.9545C91.5458 91.9809 91.3879 91.8667 91.3572 91.6955C91.3309 91.5243 91.4449 91.3663 91.616 91.3355C91.7871 91.3048 91.9451 91.4233 91.9758 91.5945ZM91.8178 91.6209C91.831 91.7043 91.774 91.7833 91.6906 91.7965C91.6072 91.8097 91.5283 91.7526 91.5151 91.6692C91.502 91.5858 91.559 91.5067 91.6423 91.4936C91.7257 91.4804 91.8047 91.5375 91.8178 91.6209ZM37.8518 70.0257C37.8255 70.1969 37.9396 70.355 38.1106 70.3857C38.2817 70.412 38.4397 70.2979 38.466 70.1267C38.4923 69.9555 38.3783 69.7974 38.2072 69.7711C38.0361 69.7447 37.8781 69.8589 37.8518 70.0301V70.0257ZM38.0097 70.0521C37.9966 70.1355 38.0536 70.2145 38.137 70.2277C38.2203 70.2408 38.2993 70.1838 38.3125 70.1003C38.3256 70.0169 38.2686 69.9379 38.1852 69.9247C38.1019 69.9116 38.0229 69.9686 38.0097 70.0521ZM16.2628 91.6955C16.2628 91.8667 16.4032 92.0072 16.5743 92.0072C16.7454 92.0072 16.8857 91.8667 16.8857 91.6955C16.8857 91.5243 16.7454 91.3838 16.5743 91.3838C16.4032 91.3838 16.2628 91.5243 16.2628 91.6955ZM16.4207 91.6955C16.4207 91.7789 16.4909 91.8492 16.5743 91.8492C16.6576 91.8492 16.7278 91.7789 16.7278 91.6955C16.7278 91.6121 16.662 91.5419 16.5743 91.5419C16.4909 91.5419 16.4207 91.6121 16.4207 91.6955ZM69.8208 70.0257C69.7945 70.1969 69.9085 70.355 70.0796 70.3857C70.2507 70.4164 70.4087 70.2979 70.4394 70.1267C70.4657 69.9555 70.3516 69.7974 70.1805 69.7667C70.0094 69.7403 69.8515 69.8545 69.8208 70.0257ZM69.9787 70.0521C69.9656 70.1355 70.0226 70.2145 70.1059 70.2277C70.1893 70.2408 70.2683 70.1838 70.2814 70.1003C70.2946 70.0169 70.2376 69.9379 70.1542 69.9247C70.0709 69.9116 69.9919 69.9686 69.9787 70.0521Z" stroke="#C4A46B" stroke-opacity="0.36" stroke-linecap="round" stroke-linejoin="round"/>
<path d="M70.0928 180.145L27.6386 227.918M77.6606 186.831L46.9902 221.307M85.1538 194.005L60.893 221.254M91.673 201.766L71.8213 223.853M30.9465 141.015C33.3155 138.662 36.0224 136.625 38.9925 135.093C50.6578 129.074 65.9996 129.917 77.2657 141.015M83.9034 120.241C70.6806 111.25 54.3956 108.893 39.6154 113.085C31.1746 115.482 23.3129 120.079 16.583 126.629M23.6024 133.662C5.15895 152.632 8.55897 179.719 23.6595 194.628M30.9465 141.02C29.5645 142.447 28.323 143.908 27.2613 145.427C25.3441 148.176 23.9578 151.06 22.997 153.979C20.5972 161.276 20.9921 168.853 23.405 175.452C25.116 180.118 27.8799 184.28 31.2272 187.511M75.6162 171.211C78.1124 163.172 76.4585 154.519 70.0972 148.11M38.1194 148.101C44.121 142.117 52.7461 139.896 61.3843 142.662M84.601 133.666C66.9428 116.145 39.883 117.309 23.6024 133.666M98.2274 193.697C113.688 170.337 107.804 142.789 91.6248 126.633M32.6399 156.916C29.9769 164.674 31.8239 173.92 38.115 180.149M16.5786 201.718C0.267308 185.799 -5.30434 157.391 9.98917 134.544M78.5511 185.883C90.5368 172.194 89.1855 152.777 77.2701 141.011M85.8733 193.315C102.987 173.797 99.9515 148.501 84.6098 133.653M62.7707 140.989C66.6138 137.13 72.804 136.963 76.8446 140.611C72.7996 136.963 66.6138 137.13 62.7707 140.989ZM62.7707 140.989C58.7915 144.984 58.8047 151.46 62.797 155.441C66.1838 158.817 71.4572 159.393 75.4889 156.824M84.6185 133.657C80.7008 129.781 80.6657 123.459 84.5396 119.539C88.4134 115.618 94.7352 115.583 98.6486 119.455M98.6486 119.455C102.562 123.327 102.597 129.654 98.7275 133.574M98.6486 119.455C102.566 123.327 102.601 129.654 98.7275 133.574M98.7275 133.574C98.495 133.807 98.2537 134.031 97.9993 134.241M84.1491 133.205C82.1135 131.195 78.8363 131.203 76.8138 133.232C74.7914 135.26 74.787 138.539 76.8007 140.572M24.278 120.052C24.0587 119.785 23.8262 119.526 23.5805 119.28M23.5805 119.28C19.6058 115.298 13.1479 115.298 9.17317 119.271M23.5805 119.28C19.6058 115.298 13.1479 115.293 9.17317 119.271M9.17317 119.271C5.19844 123.248 5.19844 129.706 9.17317 133.688M9.17317 133.688C13.1479 137.67 19.6058 137.67 23.5805 133.693M9.17317 133.688C13.1479 137.666 19.6058 137.67 23.5805 133.693M23.5805 133.693C23.5936 133.684 23.6024 133.671 23.6112 133.662C23.6024 133.671 23.5893 133.684 23.5805 133.693ZM30.9245 141.05C30.9333 141.042 30.9552 141.02 30.9552 141.02C30.9465 141.029 30.9333 141.042 30.9245 141.05ZM30.9245 141.05C26.9542 145.041 26.9673 151.503 30.9552 155.472M30.9245 141.05C26.9586 145.041 26.9717 151.503 30.9552 155.472M30.9552 155.472C34.9387 159.441 41.3966 159.428 45.3669 155.437M45.3669 155.437C48.7363 152.048 49.3066 146.78 46.7357 142.754C49.3066 146.78 48.7363 152.052 45.3669 155.437ZM23.1988 141.454C21.1807 139.444 21.1632 136.177 23.1593 134.136C21.1632 136.177 21.1807 139.439 23.1988 141.454ZM23.1988 141.454C25.23 143.483 28.5204 143.474 30.5516 141.441M23.1988 141.454C25.23 143.483 28.5248 143.474 30.5516 141.441M30.5516 141.441C30.5648 141.428 30.5736 141.419 30.5867 141.406M99.118 208.931C95.2617 212.825 89.0188 212.974 84.9783 209.269C89.0144 212.974 95.2573 212.825 99.118 208.931ZM99.118 208.931C103.084 204.932 103.058 198.456 99.061 194.487M99.118 208.931C103.084 204.932 103.062 198.456 99.061 194.487M99.061 194.487C95.2134 190.668 89.0539 190.523 85.0309 194.158M77.2131 172.809C81.122 176.668 81.2624 182.933 77.5333 186.963C81.2624 182.933 81.1176 176.668 77.2131 172.809ZM77.2131 172.809C73.2164 168.862 66.7761 168.906 62.8321 172.901M77.2131 172.809C73.2208 168.862 66.7761 168.902 62.8321 172.901M62.8321 172.901C58.8881 176.896 58.9319 183.345 62.9242 187.292M62.8321 172.901C58.8881 176.896 58.9275 183.345 62.9242 187.292M62.9242 187.292C63.0295 187.393 63.1304 187.494 63.2401 187.591C63.1348 187.494 63.0295 187.393 62.9242 187.292ZM85.0529 194.149C85.0397 194.163 85.009 194.193 85.009 194.193C85.0222 194.18 85.0397 194.163 85.0529 194.149ZM85.0529 194.149C87.0709 192.108 87.0534 188.815 85.0134 186.796M85.0529 194.149C87.0709 192.112 87.0534 188.815 85.0134 186.796M85.0134 186.796C82.9734 184.776 79.6786 184.794 77.6649 186.835M85.0134 186.796C82.9734 184.776 79.683 184.794 77.6649 186.835M77.6649 186.835C77.6211 186.879 77.5772 186.928 77.5333 186.976C77.5772 186.928 77.6211 186.884 77.6649 186.835ZM9.24775 194.602C9.49343 194.356 9.74788 194.123 10.0199 193.904C9.75227 194.123 9.49343 194.356 9.24775 194.602ZM9.24775 194.602C5.26424 198.579 5.25108 205.033 9.21265 209.01M9.24775 194.602C5.26424 198.579 5.24669 205.033 9.21265 209.01M9.21265 209.01C13.1786 212.988 19.6277 212.988 23.6112 209.01M23.6112 209.01C27.5859 205.041 27.6123 198.61 23.6682 194.624C27.6123 198.605 27.5859 205.037 23.6112 209.01ZM45.3406 187.248C41.5677 191.028 35.5178 191.252 31.4817 187.753C35.5178 191.252 41.5677 191.032 45.3406 187.248ZM45.3406 187.248C49.3066 183.271 49.2978 176.821 45.3231 172.857M45.3231 172.857C41.9625 169.503 36.7331 168.919 32.7145 171.452C36.7287 168.919 41.9625 169.499 45.3231 172.857ZM24.0367 194.997C24.0016 194.966 23.9709 194.935 23.9402 194.9C23.9709 194.931 24.006 194.966 24.0367 194.997ZM24.0367 194.997C26.068 197.029 29.3627 197.034 31.3896 195.005C33.4164 192.977 33.412 189.68 31.3808 187.648M31.3808 187.648C31.3501 187.617 31.315 187.582 31.2843 187.551C31.3194 187.582 31.3501 187.612 31.3808 187.648ZM16.8857 126.484C16.9121 126.651 16.798 126.804 16.6313 126.831C16.4646 126.857 16.311 126.743 16.2847 126.581C16.2584 126.414 16.3724 126.26 16.5392 126.234C16.7059 126.207 16.8594 126.321 16.8857 126.488V126.484ZM16.719 126.51C16.7322 126.585 16.6795 126.655 16.605 126.664C16.5304 126.677 16.4602 126.624 16.4514 126.55C16.4382 126.475 16.4909 126.405 16.5655 126.396C16.6401 126.383 16.7102 126.436 16.719 126.51ZM38.4265 148.048C38.4528 148.22 38.3388 148.378 38.1721 148.404C38.001 148.43 37.843 148.316 37.8167 148.145C37.7904 147.974 37.9044 147.816 38.0712 147.785C38.2423 147.759 38.4002 147.873 38.4265 148.044V148.048ZM38.2686 148.075C38.2817 148.158 38.2247 148.237 38.1413 148.25C38.058 148.263 37.9834 148.206 37.9703 148.123C37.9571 148.04 38.0141 147.961 38.0975 147.947C38.1808 147.934 38.2554 147.991 38.2686 148.075ZM70.413 148.097C70.413 148.268 70.2726 148.408 70.1016 148.408C69.9305 148.408 69.7901 148.268 69.7901 148.097C69.7901 147.925 69.9305 147.785 70.1016 147.785C70.2726 147.785 70.413 147.925 70.413 148.097ZM70.2551 148.097C70.2551 148.18 70.1893 148.25 70.1016 148.25C70.0182 148.25 69.9524 148.18 69.9524 148.097C69.9524 148.013 70.0182 147.943 70.1059 147.943C70.1937 147.943 70.2551 148.013 70.2551 148.097ZM91.8354 126.387C91.9626 126.501 91.9757 126.699 91.8573 126.831C91.7432 126.958 91.5458 126.971 91.4142 126.853C91.287 126.739 91.2738 126.541 91.3923 126.409C91.5063 126.282 91.7037 126.269 91.8354 126.387ZM91.7301 126.506C91.7915 126.563 91.8003 126.66 91.7432 126.721C91.6862 126.782 91.5897 126.787 91.5283 126.734C91.4668 126.681 91.4625 126.581 91.5151 126.519C91.5721 126.458 91.6686 126.453 91.7301 126.506ZM16.2803 201.665C16.254 201.837 16.3681 201.995 16.5392 202.025C16.7102 202.052 16.8682 201.938 16.8989 201.766C16.9252 201.595 16.8112 201.437 16.6401 201.406C16.469 201.376 16.311 201.494 16.2803 201.665ZM16.4382 201.692C16.4251 201.775 16.4821 201.854 16.5655 201.867C16.6488 201.88 16.7278 201.823 16.741 201.74C16.7541 201.657 16.6971 201.578 16.6137 201.564C16.5304 201.551 16.4514 201.608 16.4382 201.692ZM70.4043 180.097C70.4306 180.268 70.3165 180.426 70.1454 180.457C69.9743 180.487 69.8164 180.369 69.7857 180.197C69.7594 180.026 69.8734 179.868 70.0445 179.838C70.2156 179.811 70.3735 179.925 70.4043 180.097ZM70.2463 180.123C70.2595 180.206 70.2025 180.285 70.1191 180.298C70.0357 180.312 69.9568 180.255 69.9436 180.171C69.9305 180.088 69.9875 180.009 70.0708 179.996C70.1542 179.982 70.2332 180.039 70.2463 180.123ZM91.9933 201.766C91.9933 201.938 91.8529 202.078 91.6818 202.078C91.5107 202.078 91.3703 201.938 91.3703 201.766C91.3703 201.595 91.5107 201.455 91.6818 201.455C91.8529 201.455 91.9933 201.595 91.9933 201.766ZM91.8354 201.766C91.8354 201.85 91.7652 201.92 91.6818 201.92C91.5985 201.92 91.5283 201.85 91.5283 201.766C91.5283 201.683 91.5985 201.613 91.6818 201.613C91.7652 201.613 91.8354 201.683 91.8354 201.766ZM38.4353 180.097C38.4616 180.268 38.3475 180.426 38.1764 180.457C38.0053 180.483 37.8474 180.369 37.8167 180.197C37.7904 180.026 37.9044 179.868 38.0755 179.838C38.2466 179.811 38.4046 179.925 38.4353 180.097ZM38.2773 180.123C38.2905 180.206 38.2335 180.285 38.1501 180.298C38.0668 180.312 37.9878 180.255 37.9746 180.171C37.9615 180.088 38.0185 180.009 38.1019 179.996C38.1852 179.982 38.2642 180.039 38.2773 180.123Z" stroke="#C4A46B" stroke-opacity="0.36" stroke-linecap="round" stroke-linejoin="round"/>
<path d="M38.1589 261.935L71.8257 223.74M30.5867 255.244L60.8974 221.141M23.0935 248.071L46.9946 221.194M16.5742 240.309L27.643 227.801M30.9816 301.055C42.2477 312.154 57.5895 312.997 69.2548 306.978C72.2249 305.446 74.9318 303.409 77.3008 301.055C78.6828 299.629 79.9243 298.167 80.986 296.648C82.9032 293.899 84.2851 291.015 85.2459 288.096C87.6456 280.795 87.2552 273.222 84.8379 266.623C83.1313 261.957 80.363 257.795 77.0157 254.564M24.3438 321.834C37.5666 330.825 53.8516 333.183 68.6319 328.99C77.0727 326.593 84.9344 321.996 91.6643 315.446M84.6449 308.413C103.088 289.443 99.6883 262.356 84.5878 247.447M32.6267 270.864C30.1305 278.903 31.7844 287.556 38.1457 293.965M70.1235 293.974C64.1219 299.958 55.4924 302.179 46.8586 299.413M23.6419 308.409C41.3001 325.93 68.3599 324.767 84.6405 308.409M10.0155 248.391C-5.44473 271.751 0.438398 299.299 16.6181 315.455M75.603 285.172C78.266 277.414 76.419 268.169 70.1279 261.939M91.6643 240.37C107.984 256.28 113.556 284.693 98.2625 307.54M29.7005 256.201C17.7149 269.89 19.0661 289.307 30.9816 301.073M22.3784 248.769C5.26424 268.287 8.30013 293.583 23.6419 308.431M45.481 301.104C41.6379 304.963 35.4476 305.129 31.4071 301.481C35.452 305.129 41.6379 304.963 45.481 301.104ZM45.481 301.104C49.4601 297.109 49.447 290.633 45.4547 286.651C42.0678 283.275 36.7945 282.7 32.7627 285.268M23.6331 308.435C27.5508 312.312 27.5859 318.634 23.7121 322.554C19.8383 326.474 13.5164 326.509 9.6031 322.637M9.6031 322.637C5.68979 318.765 5.65469 312.439 9.52413 308.519M9.6031 322.637C5.6854 318.765 5.6503 312.439 9.52413 308.519M9.52413 308.519C9.75665 308.286 9.99794 308.062 10.2524 307.851C9.99794 308.062 9.75226 308.286 9.52413 308.519ZM24.1025 308.887C26.1382 310.898 29.4154 310.889 31.4378 308.861C33.4603 306.833 33.4647 303.553 31.451 301.521M83.9736 322.04C84.193 322.308 84.4255 322.567 84.6712 322.813M84.6712 322.813C88.6459 326.795 95.1038 326.795 99.0785 322.817M84.6712 322.813C88.6459 326.79 95.1038 326.795 99.0785 322.817M99.0785 322.817C103.053 318.84 103.053 312.382 99.0785 308.4M99.0785 308.4C95.1038 304.418 88.6459 304.418 84.6712 308.391M99.0785 308.4C95.1038 304.418 88.6459 304.414 84.6712 308.391M84.6712 308.391C84.6624 308.4 84.6492 308.413 84.6405 308.422M77.3271 301.042C77.3184 301.051 77.2964 301.073 77.2964 301.073C77.3052 301.064 77.3184 301.051 77.3271 301.042ZM77.3271 301.042C81.2975 297.052 81.2843 290.589 77.3008 286.621C73.3173 282.652 66.8595 282.665 62.8891 286.656M62.8891 286.656C59.5198 290.045 58.9495 295.313 61.5203 299.339C58.9495 295.313 59.5198 290.04 62.8891 286.656ZM85.0529 300.638C87.0709 302.649 87.0885 305.915 85.0923 307.957C87.0885 305.915 87.0709 302.653 85.0529 300.638ZM85.0529 300.638C83.026 298.614 79.7313 298.619 77.7 300.651M85.0529 300.638C83.0216 298.61 79.7269 298.619 77.7 300.651M77.7 300.651C77.6869 300.665 77.6781 300.673 77.6649 300.687M23.2778 232.815C19.2372 229.11 12.9943 229.259 9.13368 233.153M9.13368 233.153C5.16772 237.157 5.19404 243.628 9.19071 247.596M9.13368 233.153C5.16333 237.152 5.18965 243.628 9.19071 247.596M9.19071 247.596C13.0382 251.416 19.1977 251.561 23.2207 247.926M31.043 269.275C27.134 265.416 26.9937 259.151 30.7227 255.121C26.9937 259.151 27.1384 265.416 31.043 269.275ZM31.043 269.275C35.0353 273.222 41.4799 273.178 45.424 269.183M45.424 269.183C49.368 265.183 49.3241 258.739 45.3318 254.792M45.424 269.183C49.368 265.188 49.3285 258.739 45.3318 254.792M45.3318 254.792C45.2265 254.691 45.1256 254.59 45.016 254.493C45.1213 254.59 45.2265 254.691 45.3318 254.792ZM23.2032 247.934C23.2163 247.921 23.2471 247.891 23.2471 247.891C23.2339 247.904 23.2163 247.921 23.2032 247.934ZM23.2032 247.934C21.1851 249.976 21.2027 253.269 23.2427 255.288M23.2032 247.934C21.1851 249.972 21.2027 253.269 23.2427 255.288M23.2427 255.288C25.2827 257.307 28.5774 257.29 30.5911 255.248M23.2427 255.288C25.2827 257.307 28.573 257.29 30.5911 255.248M30.5911 255.248C30.635 255.205 30.6788 255.156 30.7227 255.108C30.6788 255.156 30.635 255.2 30.5911 255.248ZM98.2362 248.18C98.5038 247.961 98.7626 247.728 99.0083 247.482M99.0083 247.482C102.992 243.505 103.005 237.051 99.0434 233.074M99.0083 247.482C102.992 243.505 103.009 237.051 99.0434 233.074M99.0434 233.074C95.0774 229.096 88.6284 229.096 84.6449 233.074M84.6449 233.074C80.6701 237.043 80.6438 243.474 84.5878 247.46C80.6438 243.478 80.6701 237.043 84.6449 233.074ZM62.9154 254.836C66.6884 251.056 72.7382 250.832 76.7744 254.331C72.7382 250.832 66.684 251.051 62.9154 254.836ZM62.9154 254.836C58.9495 258.813 58.9582 265.262 62.933 269.227M62.9154 254.836C58.9495 258.813 58.9582 265.258 62.933 269.227M62.933 269.227C66.2935 272.581 71.5274 273.165 75.5416 270.627C71.5274 273.16 66.2935 272.576 62.933 269.227ZM84.2237 247.087C84.2588 247.118 84.2895 247.153 84.3202 247.184C84.2895 247.153 84.2544 247.118 84.2237 247.087ZM84.2237 247.087C82.1925 245.055 78.8977 245.05 76.8709 247.078C74.844 249.107 74.8484 252.404 76.8797 254.436M76.8797 254.436C76.9104 254.467 76.9455 254.502 76.9762 254.533C76.9455 254.502 76.9104 254.471 76.8797 254.436ZM91.3615 315.587C91.3352 315.42 91.4493 315.266 91.6116 315.24C91.7783 315.214 91.9319 315.328 91.9582 315.49C91.9845 315.657 91.8705 315.811 91.7081 315.837C91.5414 315.863 91.3879 315.749 91.3615 315.582V315.587ZM91.5283 315.56C91.5151 315.486 91.5677 315.416 91.6423 315.407C91.7169 315.394 91.7871 315.446 91.7959 315.521C91.809 315.596 91.7564 315.666 91.6818 315.675C91.6072 315.688 91.537 315.635 91.5283 315.56ZM69.8208 294.027C69.7944 293.856 69.9085 293.697 70.0752 293.671C70.2419 293.645 70.4043 293.759 70.4306 293.93C70.4569 294.101 70.3428 294.259 70.1761 294.29C70.0094 294.316 69.8471 294.202 69.8208 294.031V294.027ZM69.9787 294C69.9655 293.917 70.0226 293.838 70.1015 293.825C70.1849 293.812 70.2639 293.869 70.277 293.952C70.2902 294.036 70.2332 294.115 70.1498 294.128C70.0664 294.141 69.9875 294.084 69.9787 294ZM37.8386 293.987C37.8386 293.816 37.979 293.676 38.1501 293.676C38.3212 293.676 38.4616 293.816 38.4616 293.987C38.4616 294.158 38.3212 294.299 38.1501 294.299C37.979 294.299 37.8386 294.158 37.8386 293.987ZM37.9966 293.987C37.9966 293.904 38.0624 293.834 38.1457 293.834C38.2291 293.834 38.2949 293.904 38.2949 293.987C38.2949 294.071 38.2291 294.141 38.1457 294.141C38.0624 294.141 37.9966 294.071 37.9966 293.987ZM16.4163 315.697C16.2891 315.582 16.2759 315.385 16.3944 315.253C16.5084 315.126 16.7059 315.113 16.8375 315.231C16.9647 315.345 16.9779 315.543 16.8594 315.675C16.7453 315.802 16.5479 315.815 16.4163 315.697ZM16.5216 315.578C16.4602 315.521 16.4514 315.424 16.5084 315.363C16.5655 315.301 16.662 315.297 16.7234 315.35C16.7848 315.407 16.7892 315.503 16.7366 315.565C16.6795 315.626 16.583 315.631 16.5216 315.578ZM91.9714 240.427C91.9977 240.256 91.8836 240.098 91.7125 240.067C91.5414 240.037 91.3835 240.155 91.3528 240.326C91.3264 240.498 91.4405 240.656 91.6116 240.686C91.7827 240.713 91.9406 240.599 91.9714 240.427ZM91.8134 240.401C91.8266 240.318 91.7695 240.239 91.6862 240.225C91.6028 240.212 91.5239 240.269 91.5107 240.353C91.4975 240.436 91.5546 240.515 91.6379 240.528C91.7213 240.541 91.8003 240.484 91.8134 240.401ZM37.8474 261.996C37.8211 261.825 37.9351 261.667 38.1062 261.641C38.2773 261.614 38.4353 261.728 38.4616 261.9C38.4879 262.071 38.3739 262.229 38.2028 262.26C38.0317 262.286 37.8737 262.172 37.8474 262.001V261.996ZM38.0053 261.97C37.9922 261.886 38.0492 261.807 38.1326 261.794C38.2159 261.781 38.2949 261.838 38.3081 261.922C38.3212 262.005 38.2642 262.084 38.1808 262.097C38.0975 262.11 38.0185 262.053 38.0053 261.97ZM16.2584 240.326C16.2584 240.155 16.3988 240.015 16.5699 240.015C16.741 240.015 16.8813 240.155 16.8813 240.326C16.8813 240.498 16.741 240.638 16.5699 240.638C16.3988 240.638 16.2584 240.498 16.2584 240.326ZM16.4163 240.326C16.4163 240.243 16.4865 240.173 16.5699 240.173C16.6532 240.173 16.7234 240.243 16.7234 240.326C16.7234 240.41 16.6576 240.48 16.5699 240.48C16.4821 240.48 16.4163 240.41 16.4163 240.326ZM69.8164 261.996C69.7901 261.825 69.9041 261.667 70.0752 261.636C70.2463 261.605 70.4043 261.724 70.435 261.895C70.4613 262.066 70.3472 262.224 70.1761 262.255C70.005 262.282 69.8471 262.167 69.8164 261.996ZM69.9743 261.97C69.9612 261.886 70.0182 261.807 70.1015 261.794C70.1849 261.781 70.2639 261.838 70.277 261.922C70.2902 262.005 70.2332 262.084 70.1498 262.097C70.0664 262.11 69.9875 262.053 69.9743 261.97Z" stroke="#C4A46B" stroke-opacity="0.36" stroke-linecap="round" stroke-linejoin="round"/>
</svg>
