<svg width="101" height="468" viewBox="0 0 101 468" fill="none" xmlns="http://www.w3.org/2000/svg">
<path d="M53.4729 98.5471L113.423 166.009M42.7863 107.989L86.0966 156.673M32.2049 118.119L66.4641 156.599M22.9989 129.079L51.032 160.269M108.746 43.2853C105.401 39.9624 101.578 37.0859 97.3841 34.9223C80.9112 26.4167 59.2468 27.6132 43.3376 43.2853M108.746 43.2853C110.698 45.3001 112.451 47.3645 113.95 49.5095C116.657 53.3904 118.609 57.4634 119.965 61.586C123.354 71.8895 122.803 82.5897 119.389 91.9075C116.979 98.4975 113.07 104.375 108.343 108.937M108.746 43.2853C108.746 43.2853 108.777 43.3163 108.789 43.3287M108.746 43.2853C108.758 43.2977 108.777 43.3163 108.789 43.3287M33.9644 13.9434C52.6366 1.24696 75.633 -2.08213 96.5044 3.83833C108.424 7.22322 119.526 13.714 129.029 22.9636M119.036 118.987C140.36 97.9333 145.161 59.6828 119.117 32.8951C119.129 32.9075 119.148 32.9261 119.16 32.9385M45.6608 85.9188C42.1358 74.5677 44.4713 62.3486 53.4543 53.2974M98.6108 53.285C90.1358 44.8352 77.9499 41.6983 65.7579 45.6039M32.9731 32.9013C57.9086 8.15933 96.1203 9.80218 119.111 32.9013M13.731 117.672C-8.10071 84.6851 0.213184 45.7837 23.0609 22.9698M106.349 65.7335C110.109 76.6879 107.501 89.7439 98.617 98.5409M129.029 128.999C152.075 106.532 159.943 66.4092 138.346 34.1474M41.5348 106.65C24.6097 87.3261 26.5178 59.8998 43.3438 43.2853M31.1951 117.145C7.02785 89.5827 11.3149 53.8616 32.9793 32.8951M63.8188 43.2419C58.3918 37.7926 49.6505 37.557 43.9448 42.7088C49.6567 37.557 58.3918 37.7926 63.8188 43.2419ZM63.8188 43.2419C69.4378 48.8834 69.4192 58.0276 63.7816 63.6505C58.999 68.4178 51.5524 69.2299 45.8591 65.6033M32.9669 32.8889C38.4992 27.4148 38.5488 18.4876 33.0785 12.9515M33.0785 12.9515C27.6081 7.4154 18.6809 7.36581 13.1549 12.8337M33.0785 12.9515C27.6081 7.4154 18.6871 7.36581 13.1549 12.8337M13.1549 12.8337C7.62878 18.3016 7.57922 27.235 13.0433 32.7711M13.1549 12.8337C7.62258 18.3016 7.57302 27.235 13.0433 32.7711M13.0433 32.7711C13.3717 33.0997 13.7124 33.4158 14.0717 33.7134C13.7124 33.4158 13.3655 33.0997 13.0433 32.7711ZM33.6298 32.2503C36.5044 29.411 41.1322 29.4234 43.9881 32.2875C46.8441 35.1517 46.8503 39.7826 44.0067 42.653M118.175 13.6768C118.485 13.2987 118.813 12.9329 119.16 12.5857M119.16 12.5857C124.773 6.96284 133.892 6.96284 139.505 12.5733M119.16 12.5857C124.773 6.96284 133.892 6.95664 139.505 12.5733M139.505 12.5733C145.118 18.19 145.118 27.3094 139.505 32.9323M139.505 32.9323C133.892 38.5552 124.773 38.5552 119.16 32.9385M139.505 32.9323C133.892 38.549 124.773 38.5552 119.16 32.9385M108.789 43.3287C114.396 48.964 114.377 58.0896 108.752 63.6939C103.127 69.2981 94.0078 69.2795 88.4012 63.6443M88.4012 63.6443C83.6433 58.8583 82.8379 51.419 86.4683 45.7341C82.8379 51.419 83.6433 58.8645 88.4012 63.6443ZM119.699 43.8991C122.549 41.0597 122.574 36.4473 119.755 33.5646C122.574 36.4411 122.549 41.0535 119.699 43.8991ZM119.699 43.8991C116.837 46.7632 112.184 46.7508 109.316 43.8805M119.699 43.8991C116.831 46.7632 112.178 46.7508 109.316 43.8805M109.316 43.8805C109.297 43.8619 109.285 43.8495 109.266 43.8309M32.4589 139.662C26.7532 144.894 17.9375 144.683 12.4858 139.184M12.4858 139.184C6.88536 133.53 6.92253 124.393 12.5663 118.788M12.4858 139.184C6.87917 133.53 6.91634 124.393 12.5663 118.788M12.5663 118.788C17.9995 113.395 26.6975 113.19 32.3784 118.323M43.4244 88.1754C37.9045 93.6247 37.7062 102.471 42.9721 108.162C37.7062 102.471 37.9107 93.6247 43.4244 88.1754ZM43.4244 88.1754C49.062 82.6021 58.1626 82.6641 63.7321 88.3056M63.7321 88.3056C69.3015 93.9533 69.2396 103.054 63.602 108.627M63.7321 88.3056C69.3015 93.9471 69.2458 103.054 63.602 108.627M63.602 108.627C63.4533 108.77 63.3108 108.913 63.1559 109.049C63.3046 108.913 63.4533 108.77 63.602 108.627ZM32.3536 118.311C32.3722 118.329 32.4156 118.373 32.4156 118.373C32.397 118.354 32.3722 118.329 32.3536 118.311ZM32.3536 118.311C29.5039 115.428 29.5286 110.772 32.4094 107.927M32.3536 118.311C29.5039 115.434 29.5286 110.779 32.4094 107.927M32.4094 107.927C35.2901 105.075 39.9427 105.1 42.7863 107.983M32.4094 107.927C35.2901 105.075 39.9365 105.1 42.7863 107.983M42.7863 107.983C42.8482 108.045 42.9102 108.113 42.9721 108.181C42.9102 108.113 42.8482 108.051 42.7863 107.983ZM138.309 117.964C138.687 118.274 139.053 118.602 139.4 118.949M139.4 118.949C145.025 124.566 145.043 133.679 139.449 139.296M139.4 118.949C145.025 124.566 145.05 133.679 139.449 139.296M139.449 139.296C133.849 144.913 124.742 144.913 119.117 139.296M119.117 139.296C113.504 133.692 113.467 124.609 119.036 118.98C113.467 124.603 113.504 133.685 119.117 139.296ZM88.4321 108.565C93.76 113.903 102.303 114.219 108.003 109.278C102.303 114.219 93.7538 113.909 88.4321 108.565ZM88.4321 108.565C82.8317 102.949 82.8441 93.8417 88.4569 88.2436M88.4321 108.565C82.8317 102.949 82.8441 93.8479 88.4569 88.2436M88.4569 88.2436C93.2024 83.5073 100.593 82.6827 106.262 86.266C100.593 82.6889 93.2024 83.5073 88.4569 88.2436ZM118.522 119.507C118.572 119.464 118.615 119.421 118.658 119.371C118.615 119.414 118.565 119.464 118.522 119.507ZM118.522 119.507C115.654 122.378 111.001 122.384 108.139 119.52C105.277 116.656 105.283 112 108.151 109.13M108.151 109.13C108.195 109.086 108.244 109.037 108.288 108.993C108.244 109.037 108.195 109.08 108.151 109.13ZM128.602 22.7652C128.564 23.0008 128.725 23.2178 128.955 23.255C129.19 23.2922 129.407 23.131 129.444 22.9016C129.481 22.666 129.32 22.449 129.091 22.4118C128.856 22.3746 128.639 22.5358 128.602 22.7714V22.7652ZM128.837 22.8024C128.818 22.9078 128.893 23.007 128.998 23.0194C129.103 23.038 129.202 22.9636 129.215 22.8582C129.233 22.7528 129.159 22.6536 129.054 22.6412C128.948 22.6226 128.849 22.697 128.837 22.8024ZM98.1833 53.2106C98.1461 53.4524 98.3072 53.6756 98.5426 53.719C98.778 53.7562 99.0073 53.595 99.0444 53.3532C99.0816 53.1114 98.9205 52.8882 98.6851 52.851C98.4497 52.8139 98.2205 52.975 98.1833 53.2168V53.2106ZM98.4063 53.2478C98.3878 53.3656 98.4683 53.4772 98.5798 53.4958C98.6975 53.5144 98.809 53.4338 98.8276 53.316C98.8462 53.1982 98.7657 53.0866 98.648 53.068C98.5302 53.0494 98.4187 53.13 98.4063 53.2478ZM53.0268 53.2912C53.0268 53.533 53.2251 53.7314 53.4667 53.7314C53.7083 53.7314 53.9066 53.533 53.9066 53.2912C53.9066 53.0494 53.7083 52.851 53.4667 52.851C53.2251 52.851 53.0268 53.0494 53.0268 53.2912ZM53.2499 53.2912C53.2499 53.409 53.3428 53.5082 53.4605 53.5082C53.5782 53.5082 53.6711 53.409 53.6711 53.2912C53.6711 53.1734 53.5782 53.0742 53.4605 53.0742C53.3428 53.0742 53.2499 53.1734 53.2499 53.2912ZM22.7697 22.6412C22.5901 22.8024 22.5715 23.0876 22.7388 23.2674C22.8998 23.4471 23.1786 23.4657 23.3645 23.2983C23.5441 23.1372 23.5627 22.8582 23.3954 22.6722C23.2344 22.4924 22.9556 22.4738 22.7697 22.6412ZM22.9184 22.8086C22.8317 22.8892 22.8193 23.0256 22.8998 23.1124C22.9804 23.1992 23.1167 23.2054 23.2034 23.1248C23.2901 23.0442 23.2963 22.9078 23.222 22.821C23.1414 22.7342 23.0051 22.728 22.9184 22.8086ZM129.469 128.93C129.506 129.172 129.345 129.395 129.103 129.439C128.862 129.476 128.639 129.315 128.595 129.073C128.558 128.831 128.719 128.608 128.961 128.565C129.202 128.521 129.425 128.689 129.469 128.93ZM129.246 128.968C129.264 129.085 129.184 129.197 129.066 129.216C128.948 129.234 128.837 129.154 128.818 129.036C128.8 128.918 128.88 128.807 128.998 128.788C129.116 128.769 129.227 128.85 129.246 128.968ZM53.0392 98.4727C53.0021 98.7145 53.1631 98.9376 53.4048 98.981C53.6464 99.0182 53.8694 98.857 53.9066 98.6153C53.9437 98.3735 53.7827 98.1503 53.541 98.1131C53.2994 98.0759 53.0764 98.2371 53.0392 98.4789V98.4727ZM53.2623 98.5099C53.2437 98.6277 53.3242 98.7393 53.4419 98.7579C53.5596 98.7764 53.6711 98.6959 53.6897 98.5781C53.7083 98.4603 53.6278 98.3487 53.5101 98.3301C53.3924 98.3115 53.2808 98.3921 53.2623 98.5099ZM22.5529 129.073C22.5529 129.315 22.7511 129.513 22.9928 129.513C23.2344 129.513 23.4326 129.315 23.4326 129.073C23.4326 128.831 23.2344 128.633 22.9928 128.633C22.7511 128.633 22.5529 128.831 22.5529 129.073ZM22.7759 129.073C22.7759 129.191 22.875 129.29 22.9928 129.29C23.1105 129.29 23.2096 129.191 23.2096 129.073C23.2096 128.955 23.1167 128.856 22.9928 128.856C22.875 128.856 22.7759 128.955 22.7759 129.073ZM98.1833 98.4727C98.1461 98.7145 98.3072 98.9376 98.5488 98.981C98.7904 99.0244 99.0135 98.857 99.0568 98.6153C99.094 98.3735 98.9329 98.1503 98.6913 98.1069C98.4497 98.0697 98.2267 98.2309 98.1833 98.4727ZM98.4063 98.5099C98.3878 98.6277 98.4683 98.7393 98.586 98.7579C98.7037 98.7764 98.8152 98.6959 98.8338 98.5781C98.8524 98.4603 98.7719 98.3487 98.6541 98.3301C98.5364 98.3115 98.4249 98.3921 98.4063 98.5099Z" stroke="#C4A46B" stroke-opacity="0.36" stroke-linecap="round" stroke-linejoin="round"/>
<path d="M98.5673 253.974L38.6169 321.436M109.254 263.416L65.9437 312.1M119.835 273.546L85.5761 312.026M129.041 284.506L101.008 315.696M43.288 198.719C46.6334 195.396 50.4558 192.519 54.6499 190.356C71.1228 181.856 92.7873 183.046 108.696 198.719M118.07 169.383C99.3975 156.686 76.4011 153.357 55.5296 159.278C43.6101 162.663 32.5084 169.153 23.0051 178.403M32.9173 188.335C6.87291 215.122 11.6742 253.373 32.9979 274.426M43.288 198.725C41.3365 200.74 39.5833 202.804 38.0841 204.949C35.3768 208.83 33.4191 212.903 32.0624 217.025C28.6736 227.329 29.2312 238.029 32.6385 247.347C35.0546 253.937 38.9576 259.814 43.6845 264.377M106.367 241.358C109.892 230.007 107.556 217.788 98.5735 208.737M53.4171 208.724C61.892 200.275 74.0717 197.138 86.27 201.043M119.055 188.341C94.1192 163.599 55.9075 165.242 32.9173 188.341M138.297 273.112C160.129 240.125 151.821 201.223 128.973 178.409M45.6793 221.173C41.9189 232.127 44.527 245.183 53.4109 253.98M22.9989 284.438C-0.0346859 261.959 -7.90253 221.842 13.6938 189.581M110.512 262.077C127.437 242.747 125.529 215.327 108.703 198.712M120.851 272.572C145.019 245.01 140.732 209.289 119.067 188.322M88.2276 198.681C93.6546 193.232 102.396 192.996 108.102 198.148C102.39 192.996 93.6546 193.232 88.2276 198.681ZM88.2276 198.681C82.6086 204.323 82.6272 213.467 88.2648 219.09C93.0475 223.857 100.494 224.669 106.187 221.043M119.079 188.328C113.547 182.854 113.498 173.927 118.968 168.391C124.438 162.855 133.365 162.805 138.892 168.273M138.892 168.273C144.418 173.741 144.467 182.674 139.003 188.211M138.892 168.273C144.424 173.741 144.473 182.674 139.003 188.211M139.003 188.211C138.675 188.539 138.334 188.855 137.975 189.153M118.417 187.69C115.542 184.85 110.914 184.863 108.058 187.727C105.202 190.591 105.196 195.222 108.04 198.092M33.8714 169.116C33.5616 168.738 33.2333 168.372 32.8863 168.025M32.8863 168.025C27.2735 162.402 18.1543 162.402 12.5415 168.013M32.8863 168.025C27.2735 162.402 18.1543 162.396 12.5415 168.013M12.5415 168.013C6.92866 173.629 6.92866 182.749 12.5415 188.372M12.5415 188.372C18.1543 193.995 27.2735 193.995 32.8863 188.378M12.5415 188.372C18.1543 193.988 27.2735 193.995 32.8863 188.378M32.8863 188.378C32.9049 188.366 32.9173 188.347 32.9297 188.335C32.9173 188.347 32.8987 188.366 32.8863 188.378ZM43.257 198.768C43.2694 198.756 43.3004 198.725 43.3004 198.725C43.288 198.737 43.2694 198.756 43.257 198.768ZM43.257 198.768C37.6504 204.403 37.669 213.529 43.3004 219.133M43.257 198.768C37.6566 204.403 37.6752 213.529 43.3004 219.133M43.3004 219.133C48.9256 224.738 58.0449 224.719 63.6515 219.084M63.6515 219.084C68.4093 214.298 69.2147 206.858 65.5843 201.174C69.2147 206.858 68.4093 214.304 63.6515 219.084ZM32.3474 199.339C29.4976 196.499 29.4728 191.887 32.2916 189.004C29.4728 191.887 29.4976 196.493 32.3474 199.339ZM32.3474 199.339C35.2157 202.203 39.8621 202.19 42.7304 199.32M32.3474 199.339C35.2157 202.203 39.8683 202.19 42.7304 199.32M42.7304 199.32C42.749 199.301 42.7614 199.289 42.78 199.27M139.554 294.624C134.109 300.123 125.293 300.333 119.587 295.101C125.287 300.333 134.103 300.123 139.554 294.624ZM139.554 294.624C145.155 288.976 145.118 279.832 139.474 274.228M139.554 294.624C145.155 288.976 145.124 279.832 139.474 274.228M139.474 274.228C134.041 268.834 125.343 268.63 119.662 273.763M108.622 243.615C114.142 249.064 114.34 257.911 109.074 263.602C114.34 257.911 114.136 249.064 108.622 243.615ZM108.622 243.615C102.978 238.042 93.8838 238.104 88.3144 243.745M108.622 243.615C102.984 238.042 93.8838 238.097 88.3144 243.745M88.3144 243.745C82.7449 249.387 82.8069 258.494 88.4445 264.067M88.3144 243.745C82.7449 249.387 82.8007 258.494 88.4445 264.067M88.4445 264.067C88.5931 264.209 88.7356 264.352 88.8905 264.488C88.7418 264.352 88.5931 264.209 88.4445 264.067ZM119.693 273.75C119.674 273.769 119.631 273.812 119.631 273.812C119.649 273.794 119.674 273.769 119.693 273.75ZM119.693 273.75C122.543 270.868 122.518 266.218 119.637 263.366M119.693 273.75C122.543 270.874 122.518 266.218 119.637 263.366M119.637 263.366C116.756 260.515 112.104 260.539 109.26 263.422M119.637 263.366C116.756 260.515 112.11 260.539 109.26 263.422M109.26 263.422C109.198 263.484 109.136 263.552 109.074 263.62C109.136 263.552 109.198 263.49 109.26 263.422ZM12.6468 274.389C12.9937 274.042 13.353 273.713 13.7371 273.403C13.3592 273.713 12.9937 274.042 12.6468 274.389ZM12.6468 274.389C7.02159 280.006 7.00301 289.119 12.5972 294.735M12.6468 274.389C7.02159 280.006 6.99681 289.119 12.5972 294.735M12.5972 294.735C18.1976 300.352 27.3045 300.352 32.9297 294.735M32.9297 294.735C38.5425 289.131 38.5797 280.049 33.0102 274.42C38.5797 280.043 38.5425 289.125 32.9297 294.735ZM63.6143 264.005C58.2865 269.343 49.7433 269.659 44.0438 264.718C49.7433 269.659 58.2865 269.349 63.6143 264.005ZM63.6143 264.005C69.2147 258.388 69.2023 249.281 63.5895 243.683M63.5895 243.683C58.844 238.947 51.4594 238.122 45.7846 241.699C51.4532 238.122 58.844 238.94 63.5895 243.683ZM33.5306 274.947C33.4811 274.903 33.4377 274.86 33.3943 274.81C33.4377 274.854 33.4873 274.903 33.5306 274.947ZM33.5306 274.947C36.399 277.817 41.0516 277.823 43.9137 274.959C46.7759 272.095 46.7697 267.439 43.9013 264.569M43.9013 264.569C43.858 264.526 43.8084 264.476 43.765 264.433C43.8146 264.476 43.858 264.519 43.9013 264.569ZM23.4325 178.198C23.4697 178.434 23.3086 178.651 23.0732 178.688C22.8378 178.725 22.621 178.564 22.5838 178.335C22.5466 178.099 22.7077 177.882 22.9431 177.845C23.1785 177.808 23.3954 177.969 23.4325 178.205V178.198ZM23.1971 178.236C23.2157 178.341 23.1414 178.44 23.0361 178.453C22.9307 178.471 22.8316 178.397 22.8192 178.291C22.8006 178.186 22.875 178.087 22.9803 178.074C23.0856 178.056 23.1847 178.13 23.1971 178.236ZM53.8507 208.65C53.8879 208.892 53.7268 209.115 53.4914 209.152C53.2498 209.189 53.0268 209.028 52.9896 208.786C52.9524 208.545 53.1135 208.321 53.3489 208.278C53.5905 208.241 53.8136 208.402 53.8507 208.644V208.65ZM53.6277 208.687C53.6463 208.805 53.5658 208.917 53.448 208.935C53.3303 208.954 53.225 208.873 53.2064 208.755C53.1879 208.638 53.2684 208.526 53.3861 208.507C53.5038 208.489 53.6091 208.569 53.6277 208.687ZM99.0196 208.718C99.0196 208.96 98.8213 209.158 98.5797 209.158C98.3381 209.158 98.1399 208.96 98.1399 208.718C98.1399 208.476 98.3381 208.278 98.5797 208.278C98.8213 208.278 99.0196 208.476 99.0196 208.718ZM98.7966 208.718C98.7966 208.836 98.7036 208.935 98.5797 208.935C98.462 208.935 98.3691 208.836 98.3691 208.718C98.3691 208.6 98.462 208.501 98.5859 208.501C98.7098 208.501 98.7966 208.6 98.7966 208.718ZM129.271 178.062C129.45 178.223 129.469 178.502 129.301 178.688C129.14 178.868 128.862 178.887 128.676 178.719C128.496 178.558 128.478 178.279 128.645 178.093C128.806 177.913 129.085 177.895 129.271 178.062ZM129.122 178.229C129.209 178.31 129.221 178.446 129.14 178.533C129.06 178.62 128.924 178.626 128.837 178.552C128.75 178.477 128.744 178.335 128.818 178.248C128.899 178.161 129.035 178.155 129.122 178.229ZM22.5776 284.364C22.5404 284.606 22.7015 284.829 22.9431 284.872C23.1847 284.909 23.4078 284.748 23.4511 284.506C23.4883 284.265 23.3272 284.041 23.0856 283.998C22.844 283.955 22.621 284.122 22.5776 284.364ZM22.8006 284.401C22.7821 284.519 22.8626 284.63 22.9803 284.649C23.098 284.668 23.2095 284.587 23.2281 284.469C23.2467 284.351 23.1662 284.24 23.0484 284.221C22.9307 284.203 22.8192 284.283 22.8006 284.401ZM99.0072 253.906C99.0444 254.148 98.8833 254.371 98.6417 254.414C98.4001 254.458 98.177 254.29 98.1337 254.049C98.0965 253.807 98.2576 253.584 98.4992 253.54C98.7408 253.503 98.9638 253.664 99.0072 253.906ZM98.7842 253.943C98.8027 254.061 98.7222 254.173 98.6045 254.191C98.4868 254.21 98.3753 254.129 98.3567 254.011C98.3381 253.894 98.4187 253.782 98.5364 253.763C98.6541 253.745 98.7656 253.825 98.7842 253.943ZM129.494 284.506C129.494 284.748 129.295 284.946 129.054 284.946C128.812 284.946 128.614 284.748 128.614 284.506C128.614 284.265 128.812 284.066 129.054 284.066C129.295 284.066 129.494 284.265 129.494 284.506ZM129.271 284.506C129.271 284.624 129.171 284.723 129.054 284.723C128.936 284.723 128.837 284.624 128.837 284.506C128.837 284.389 128.936 284.289 129.054 284.289C129.171 284.289 129.271 284.389 129.271 284.506ZM53.8631 253.906C53.9003 254.148 53.7392 254.371 53.4976 254.414C53.256 254.451 53.033 254.29 52.9896 254.049C52.9524 253.807 53.1135 253.584 53.3551 253.54C53.5967 253.503 53.8198 253.664 53.8631 253.906ZM53.6401 253.943C53.6587 254.061 53.5781 254.173 53.4604 254.191C53.3427 254.21 53.2312 254.129 53.2126 254.011C53.194 253.894 53.2746 253.782 53.3923 253.763C53.51 253.745 53.6215 253.825 53.6401 253.943Z" stroke="#C4A46B" stroke-opacity="0.36" stroke-linecap="round" stroke-linejoin="round"/>
<path d="M53.4729 369.472L101.014 315.537M42.78 360.024L85.5823 311.866M32.1987 349.894L65.9499 311.941M22.9927 338.933L38.6231 321.271M43.3376 424.715C59.2467 440.387 80.9112 441.577 97.3841 433.078C101.578 430.914 105.401 428.038 108.746 424.715C110.697 422.7 112.451 420.635 113.95 418.49C116.657 414.61 118.609 410.537 119.965 406.414C123.354 396.104 122.803 385.41 119.389 376.093C116.979 369.503 113.07 363.626 108.343 359.063M33.9643 454.057C52.6365 466.753 75.6329 470.082 96.5044 464.162C108.424 460.777 119.526 454.286 129.029 445.036M119.117 435.105C145.161 408.317 140.36 370.067 119.036 349.013M45.6608 382.081C42.1357 393.432 44.4713 405.651 53.4543 414.703M98.6107 414.715C90.1358 423.165 77.9499 426.302 65.7578 422.396M32.9731 435.099C57.9086 459.841 96.1203 458.198 119.11 435.099M13.731 350.346C-8.10075 383.334 0.206951 422.235 23.0547 445.049M106.348 402.285C110.109 391.331 107.501 378.275 98.6169 369.478M129.029 339.02C152.075 361.487 159.943 401.609 138.346 433.871M41.5286 361.375C24.6035 380.705 26.5116 408.125 43.3376 424.74M31.1889 350.879C7.02162 378.442 11.3087 414.163 32.9731 435.13M63.8126 424.783C58.3856 430.232 49.6443 430.468 43.9385 425.316C49.6505 430.468 58.3856 430.232 63.8126 424.783ZM63.8126 424.783C69.4316 419.141 69.413 409.997 63.7754 404.374C58.9927 399.607 51.5462 398.795 45.8528 402.422M32.9607 435.136C38.493 440.61 38.5425 449.537 33.0722 455.073C27.6019 460.609 18.6747 460.659 13.1486 455.191M13.1486 455.191C7.62255 449.723 7.57299 440.79 13.0371 435.254M13.1486 455.191C7.61635 449.723 7.56679 440.79 13.0371 435.254M13.0371 435.254C13.3655 434.925 13.7062 434.609 14.0655 434.311C13.7062 434.609 13.3593 434.925 13.0371 435.254ZM33.6236 435.775C36.4981 438.614 41.1259 438.601 43.9819 435.737C46.8379 432.873 46.844 428.242 44.0005 425.372M118.169 454.348C118.479 454.726 118.807 455.092 119.154 455.439M119.154 455.439C124.767 461.062 133.886 461.062 139.499 455.445M119.154 455.439C124.767 461.056 133.886 461.062 139.499 455.445M139.499 455.445C145.112 449.829 145.112 440.709 139.499 435.086M139.499 435.086C133.886 429.463 124.767 429.463 119.154 435.074M139.499 435.086C133.886 429.463 124.767 429.457 119.154 435.074M119.154 435.074C119.141 435.086 119.123 435.105 119.11 435.117M108.783 424.696C108.771 424.709 108.74 424.74 108.74 424.74C108.752 424.727 108.771 424.709 108.783 424.696ZM108.783 424.696C114.39 419.061 114.371 409.935 108.746 404.331C103.121 398.727 94.0015 398.745 88.3949 404.381M88.3949 404.381C83.6371 409.167 82.8317 416.606 86.462 422.291C82.8317 416.606 83.6371 409.16 88.3949 404.381ZM119.693 424.126C122.543 426.965 122.567 431.577 119.749 434.46C122.567 431.577 122.543 426.971 119.693 424.126ZM119.693 424.126C116.831 421.268 112.178 421.274 109.31 424.144M119.693 424.126C116.824 421.262 112.172 421.274 109.31 424.144M109.31 424.144C109.291 424.163 109.279 424.175 109.26 424.194M32.4589 328.351C26.7532 323.118 17.9375 323.329 12.4857 328.828M12.4857 328.828C6.88532 334.482 6.9225 343.62 12.5663 349.224M12.4857 328.828C6.87913 334.476 6.9163 343.62 12.5663 349.224M12.5663 349.224C17.9994 354.618 26.6974 354.822 32.3784 349.689M43.4243 379.837C37.9044 374.388 37.7062 365.541 42.9721 359.85C37.7062 365.541 37.9106 374.388 43.4243 379.837ZM43.4243 379.837C49.0619 385.41 58.1626 385.348 63.732 379.707M63.732 379.707C69.3015 374.059 69.2395 364.958 63.6019 359.385M63.732 379.707C69.3015 374.065 69.2457 364.958 63.6019 359.385M63.6019 359.385C63.4532 359.243 63.3108 359.1 63.1559 358.964C63.3046 359.1 63.4532 359.243 63.6019 359.385ZM32.3536 349.702C32.3722 349.683 32.4155 349.64 32.4155 349.64C32.397 349.658 32.3722 349.683 32.3536 349.702ZM32.3536 349.702C29.5038 352.584 29.5286 357.234 32.4093 360.086M32.3536 349.702C29.5038 352.578 29.5286 357.234 32.4093 360.086M32.4093 360.086C35.2901 362.937 39.9426 362.913 42.7862 360.03M32.4093 360.086C35.2901 362.937 39.9365 362.913 42.7862 360.03M42.7862 360.03C42.8482 359.968 42.9101 359.9 42.9721 359.831C42.9101 359.9 42.8482 359.962 42.7862 360.03ZM138.309 350.049C138.687 349.739 139.053 349.41 139.4 349.063M139.4 349.063C145.025 343.446 145.043 334.333 139.449 328.717M139.4 349.063C145.025 343.446 145.05 334.333 139.449 328.717M139.449 328.717C133.849 323.1 124.742 323.1 119.117 328.717M119.117 328.717C113.504 334.321 113.467 343.403 119.036 349.032C113.467 343.409 113.504 334.321 119.117 328.717ZM88.4321 359.447C93.7599 354.109 102.303 353.793 108.003 358.734C102.303 353.793 93.7537 354.103 88.4321 359.447ZM88.4321 359.447C82.8317 365.064 82.8441 374.171 88.4569 379.769M88.4321 359.447C82.8317 365.064 82.8441 374.165 88.4569 379.769M88.4569 379.769C93.2024 384.505 100.593 385.33 106.262 381.746C100.593 385.324 93.2024 384.499 88.4569 379.769ZM118.522 348.505C118.572 348.548 118.615 348.598 118.658 348.641C118.615 348.598 118.565 348.548 118.522 348.505ZM118.522 348.505C115.654 345.635 111.001 345.629 108.139 348.493C105.277 351.357 105.283 356.013 108.151 358.883M108.151 358.883C108.195 358.926 108.244 358.976 108.288 359.019C108.244 358.976 108.195 358.933 108.151 358.883ZM128.601 445.235C128.564 444.999 128.725 444.782 128.955 444.745C129.19 444.708 129.407 444.869 129.444 445.098C129.481 445.334 129.32 445.551 129.091 445.588C128.855 445.625 128.639 445.464 128.601 445.229V445.235ZM128.837 445.198C128.818 445.092 128.893 444.993 128.998 444.981C129.103 444.962 129.202 445.036 129.215 445.142C129.233 445.247 129.159 445.346 129.054 445.359C128.948 445.377 128.849 445.303 128.837 445.198ZM98.1833 414.789C98.1461 414.548 98.3072 414.324 98.5426 414.287C98.778 414.25 99.0072 414.411 99.0444 414.653C99.0816 414.895 98.9205 415.118 98.6851 415.161C98.4497 415.199 98.2204 415.037 98.1833 414.796V414.789ZM98.4063 414.752C98.3877 414.634 98.4682 414.523 98.5798 414.504C98.6975 414.486 98.809 414.566 98.8276 414.684C98.8461 414.802 98.7656 414.913 98.6479 414.932C98.5302 414.951 98.4187 414.87 98.4063 414.752ZM53.0206 414.734C53.0206 414.492 53.2189 414.293 53.4605 414.293C53.7021 414.293 53.9003 414.492 53.9003 414.734C53.9003 414.975 53.7021 415.174 53.4605 415.174C53.2189 415.174 53.0206 414.975 53.0206 414.734ZM53.2436 414.734C53.2436 414.616 53.3366 414.517 53.4543 414.517C53.572 414.517 53.6649 414.616 53.6649 414.734C53.6649 414.851 53.572 414.951 53.4543 414.951C53.3366 414.951 53.2436 414.851 53.2436 414.734ZM22.7697 445.39C22.59 445.229 22.5714 444.95 22.7387 444.764C22.8998 444.584 23.1786 444.565 23.3644 444.733C23.5441 444.894 23.5627 445.173 23.3954 445.359C23.2343 445.539 22.9555 445.557 22.7697 445.39ZM22.9184 445.222C22.8316 445.142 22.8193 445.005 22.8998 444.919C22.9803 444.832 23.1166 444.826 23.2034 444.9C23.2901 444.981 23.2963 445.117 23.2219 445.204C23.1414 445.291 23.0051 445.297 22.9184 445.222ZM129.463 339.101C129.5 338.859 129.339 338.636 129.097 338.592C128.855 338.549 128.632 338.716 128.589 338.958C128.552 339.2 128.713 339.423 128.955 339.466C129.196 339.504 129.419 339.342 129.463 339.101ZM129.24 339.063C129.258 338.946 129.178 338.834 129.06 338.815C128.942 338.797 128.831 338.877 128.812 338.995C128.793 339.113 128.874 339.225 128.992 339.243C129.109 339.262 129.221 339.181 129.24 339.063ZM53.033 369.558C52.9958 369.317 53.1569 369.093 53.3985 369.056C53.6401 369.019 53.8632 369.18 53.9003 369.422C53.9375 369.664 53.7764 369.887 53.5348 369.93C53.2932 369.968 53.0702 369.806 53.033 369.565V369.558ZM53.256 369.521C53.2374 369.403 53.318 369.292 53.4357 369.273C53.5534 369.255 53.6649 369.335 53.6835 369.453C53.7021 369.571 53.6215 369.682 53.5038 369.701C53.3861 369.72 53.2746 369.639 53.256 369.521ZM22.5467 338.958C22.5467 338.716 22.7449 338.518 22.9865 338.518C23.2281 338.518 23.4264 338.716 23.4264 338.958C23.4264 339.2 23.2281 339.398 22.9865 339.398C22.7449 339.398 22.5467 339.2 22.5467 338.958ZM22.7697 338.958C22.7697 338.84 22.8688 338.741 22.9865 338.741C23.1042 338.741 23.2034 338.84 23.2034 338.958C23.2034 339.076 23.1104 339.175 22.9865 339.175C22.8626 339.175 22.7697 339.076 22.7697 338.958ZM98.1771 369.558C98.1399 369.317 98.301 369.093 98.5426 369.05C98.7842 369.007 99.0072 369.174 99.0506 369.416C99.0878 369.658 98.9267 369.881 98.6851 369.924C98.4435 369.961 98.2204 369.8 98.1771 369.558ZM98.4001 369.521C98.3815 369.403 98.462 369.292 98.5798 369.273C98.6975 369.255 98.809 369.335 98.8276 369.453C98.8461 369.571 98.7656 369.682 98.6479 369.701C98.5302 369.72 98.4187 369.639 98.4001 369.521Z" stroke="#C4A46B" stroke-opacity="0.36" stroke-linecap="round" stroke-linejoin="round"/>
</svg>
