<svg width="138" height="49" viewBox="0 0 138 49" fill="none" xmlns="http://www.w3.org/2000/svg">
<g clip-path="url(#clip0_1_96)">
<path d="M3.02887 36.2518C3.10795 35.9776 3.16595 35.7693 3.22921 35.5664C5.66497 27.745 11.3721 9.18424 11.7623 7.71593C11.9284 7.09118 12.0971 6.46642 12.2658 5.84166C12.4239 5.25908 12.6216 4.67123 12.6216 4.06229C12.6427 3.75914 12.6823 3.43754 12.6322 3.13439C12.5478 2.6098 12.2131 2.14585 11.7438 1.90069C11.7122 1.88487 11.5066 1.80052 11.4539 1.77943C11.4749 1.74516 11.5303 1.70035 11.5646 1.68716C11.9415 1.53954 14.6778 2.75479 15.8588 3.17129C16.9185 3.54298 17.4062 4.32854 17.4563 5.38825C17.4826 5.95502 17.0081 7.66585 17.19 7.7133C17.3719 7.76075 17.5538 7.21771 17.6592 7.04373C18.197 6.129 18.8323 5.44361 19.6469 4.75295C20.3876 4.12556 21.2127 3.67742 22.1828 3.50344C24.3866 3.1133 25.6335 4.65014 25.4226 6.63513C25.383 7.00946 24.9507 8.14825 25.0693 8.22734C25.1669 8.2906 25.5359 7.67903 25.6255 7.54986C26.1765 6.76166 26.7037 6.34252 27.4919 5.78367C28.3038 5.209 29.1869 4.83731 30.2071 4.85049C31.8388 4.86894 32.9486 5.86802 33.1147 7.49186C33.1938 8.27215 33.1253 9.04453 32.9091 9.79582C32.3555 11.7044 31.8019 13.6129 31.2246 15.5162C29.3978 21.5476 25.6915 34.0901 25.3119 34.4671C23.6669 34.5884 19.9948 34.881 19.6627 34.9205C19.7286 34.6543 23.6511 21.7769 25.5306 15.5531C26.1449 13.518 26.7459 11.4777 27.3443 9.43467C27.4339 9.13152 27.5077 8.81255 27.5156 8.49886C27.5235 8.25106 27.4629 7.97954 27.3522 7.75811C27.1677 7.38906 26.7406 7.25198 26.3874 7.47341C26.0948 7.65794 25.8233 7.91628 25.6255 8.20098C24.9955 9.1078 24.6001 10.1359 24.2785 11.1798C23.348 14.1797 22.4464 17.1875 21.5528 20.1979C20.1398 24.9613 17.161 34.8731 17.074 35.1235C15.1892 35.279 13.3519 35.4187 11.3748 35.5795C11.438 35.3186 15.2314 22.9236 17.0767 16.8975C17.9255 14.1217 18.7611 11.3432 19.5836 8.55949C19.7339 8.04808 19.8077 7.51032 19.8736 6.97782C19.9184 6.62195 19.9026 6.23972 19.4887 6.06573C19.1618 5.92865 18.8112 6.03674 18.5265 6.47433C18.139 7.07272 17.7779 7.69748 17.4905 8.3486C16.3728 10.8819 15.5451 13.5206 14.7411 16.1646C13.1752 21.3209 8.87311 35.4319 8.71231 35.7957C7.02784 35.9117 3.3083 36.2359 3.03151 36.2518H3.02887Z" fill="white"/>
<path d="M82.5469 29.8722C80.6278 30.0278 78.7298 30.178 76.7475 30.3362C78.9355 23.3795 81.0786 16.4703 83.2429 9.58477C85.038 9.43979 86.8095 9.30007 88.6442 9.15245C88.4861 10.1014 88.0959 10.9872 87.9878 11.8887C88.1091 11.7068 88.233 11.5276 88.3516 11.3457C89.2901 9.88792 90.5264 8.8203 92.2451 8.39853C93.0228 8.20609 93.8084 8.13228 94.6071 8.29572C95.4217 8.46179 95.941 8.9442 96.0332 9.76403C96.1018 10.3677 96.0464 10.9872 96.0464 11.7332C96.194 11.488 96.281 11.3483 96.3601 11.206C97.1035 9.87211 98.0762 8.77022 99.4839 8.10855C100.499 7.63142 101.566 7.46535 102.679 7.59188C103.744 7.71578 104.363 8.34844 104.471 9.41606C104.577 10.46 104.445 11.488 104.16 12.4871C103.617 14.3983 103.04 16.2989 102.45 18.1969C101.443 21.442 99.3046 28.1034 99.1465 28.541C97.6597 28.657 93.7055 28.9865 93.4288 28.9997C93.4999 28.7387 93.5658 28.4883 93.6291 28.2879C95.0895 23.6009 96.5604 18.9166 98.0103 14.227C98.2502 13.4493 98.4189 12.6506 98.5902 11.8545C98.6509 11.5671 98.6588 11.2587 98.6324 10.9661C98.5982 10.5707 98.3925 10.4151 97.9945 10.4125C97.5674 10.4099 97.1957 10.5733 96.9585 10.9107C96.6501 11.3457 96.3258 11.7938 96.1439 12.2868C95.622 13.7024 95.137 15.1338 94.6967 16.5784C93.4868 20.5299 91.022 28.7782 90.761 29.2185C89.1556 29.3345 85.2094 29.6561 84.9906 29.6824C85.0565 29.4267 88.0379 20.2452 89.3902 15.8772C89.7119 14.8333 89.9702 13.7709 90.2285 12.7086C90.3076 12.3843 90.3182 12.0363 90.3023 11.7042C90.2786 11.2112 89.9834 11.0004 89.4983 11.0821C89.0396 11.1612 88.6759 11.4169 88.4492 11.8044C88.1381 12.3342 87.8191 12.872 87.6188 13.4467C87.0837 14.9835 86.5881 16.5388 86.1136 18.0968C84.9774 21.8216 82.6339 29.635 82.5469 29.8775V29.8722Z" fill="white"/>
<path d="M39.9185 13.0619C39.8499 13.3096 36.7604 23.2451 35.3106 27.9347C35.0707 28.7124 34.8993 29.5111 34.7333 30.3072C34.67 30.613 34.6595 30.9452 34.7069 31.251C34.7886 31.7756 35.1366 31.9416 35.6243 31.7334C36.0777 31.5383 36.4573 31.2299 36.6866 30.8055C37.0609 30.1095 37.4511 29.4031 37.6936 28.6544C38.8219 25.1747 42.6231 12.8404 42.6231 12.8404C42.6231 12.8404 48.1958 12.3765 48.4041 12.3765C48.3303 12.6453 46.3348 19.1565 45.3699 22.1221C44.2575 25.5491 42.5625 32.8722 42.515 33.0778C40.6513 33.228 38.8535 33.373 36.9397 33.5259C37.0425 32.3291 37.4142 31.2773 37.5354 30.157C37.4959 30.1412 37.4564 30.1253 37.4168 30.1095C37.3193 30.2914 37.2191 30.476 37.1216 30.6605C36.2438 32.3212 34.9389 33.5286 33.236 34.3009C32.4346 34.6647 31.6016 34.7886 30.7369 34.5487C29.6034 34.235 28.8864 33.3388 28.8337 32.1604C28.7889 31.1534 29.0103 30.1781 29.2897 29.2264C29.9698 26.8988 34.0848 13.5258 34.0848 13.5258C34.0848 13.5258 39.6206 13.0566 39.9238 13.0566L39.9185 13.0619Z" fill="white"/>
<path d="M110.181 27.6553C110.408 26.5007 110.706 25.3671 110.933 24.2151C110.621 24.2969 110.6 24.5394 110.511 24.7081C109.72 26.216 108.565 27.3574 107.071 28.1614C106.282 28.5858 105.457 28.8178 104.551 28.7202C103.219 28.5805 102.286 27.6236 102.204 26.2898C102.152 25.4436 102.297 24.6158 102.526 23.8171C103.182 21.5448 103.862 19.2804 104.558 17.0212C105.455 14.1162 107.416 7.87658 107.5 7.63669C109.39 7.4838 111.309 7.33354 113.279 7.17274C113.178 7.52861 113.089 7.86076 113.007 8.12174C111.576 12.7138 110.134 17.3006 108.713 21.8954C108.473 22.673 108.299 23.4718 108.12 24.2652C108.054 24.5526 108.033 24.8584 108.049 25.1536C108.088 25.8627 108.518 26.0841 109.151 25.7415C109.62 25.4884 109.981 25.1062 110.218 24.6448C110.534 24.028 110.846 23.398 111.059 22.7416C111.911 20.1134 112.725 17.4746 113.553 14.8385C114.309 12.4318 115.941 7.18065 116.023 6.95394C117.908 6.80105 119.824 6.65079 121.806 6.48999C121.727 6.77205 119.489 13.8157 118.451 17.095C117.46 20.2241 116.173 25.926 115.904 27.1939C114.32 27.3258 110.455 27.6394 110.176 27.6526L110.181 27.6553Z" fill="white"/>
<path d="M81.047 9.69298C80.9837 9.91968 80.9389 10.1068 80.8809 10.2914C79.7105 13.9846 78.5242 17.6751 77.367 21.3736C76.4892 24.1836 75.179 30.2572 75.1316 30.4655C73.2679 30.6157 71.2934 30.7713 69.377 30.9268C69.5668 29.5929 70.0202 27.5051 69.9727 27.4867C69.8646 27.6844 69.7513 27.8795 69.6485 28.0798C69.1582 29.0525 68.5123 29.8961 67.6609 30.5841C66.6064 31.4356 65.3885 31.8811 64.0547 32.0155C63.7252 32.0498 63.3798 32.0076 63.0477 31.9522C62.1593 31.8046 61.5925 31.2642 61.3052 30.4259C61.0284 29.6193 61.0205 28.7863 61.1128 27.948C61.3342 25.9182 61.8931 23.9727 62.6259 22.0748C63.6566 19.407 64.9984 16.908 66.812 14.6831C68.1564 13.0329 69.6986 11.6147 71.6229 10.6552C72.796 10.0699 74.0402 9.74833 75.3451 9.6798C75.6799 9.66134 76.0173 9.74043 76.3547 9.73779C77.7466 9.72988 80.8335 9.69298 81.047 9.69298ZM74.5358 12.3264C74.3961 12.3264 74.2986 12.3133 74.2063 12.3264C73.6738 12.4108 73.223 12.6902 72.8777 13.0725C72.3584 13.6445 71.8259 14.2244 71.4305 14.8808C69.2531 18.4976 67.9561 22.4491 67.1363 26.5693C67.0335 27.0886 67.0045 27.6422 67.0572 28.1668C67.1442 29.0103 67.9403 29.353 68.6336 28.8522C68.9262 28.6413 69.1819 28.3223 69.348 27.9981C69.6801 27.3443 69.9964 26.6721 70.2232 25.9762C71.6493 21.5713 73.0491 17.1584 74.4541 12.7482C74.4936 12.6243 74.5042 12.4925 74.5358 12.3238V12.3264Z" fill="white"/>
<path d="M56.0831 11.7648C55.1578 14.7384 54.2853 17.6407 53.3705 20.5879C53.8978 20.5536 54.338 20.5299 54.7782 20.4956C55.2316 20.4587 55.685 20.4113 56.178 20.3664C56.2597 20.1292 58.9222 11.5381 58.9222 11.5381C58.9222 11.5381 64.1627 11.1084 64.5871 11.0847C64.5529 11.2745 58.3449 31.2509 58.1524 31.8308C56.7474 31.9416 52.7932 32.2737 52.4321 32.2895C53.5814 28.5067 54.8204 24.8241 55.9935 20.9754C55.6771 21.1045 52.7932 22.3962 52.7932 22.3962C52.7932 22.3962 49.7643 32.2342 49.6747 32.511C47.7925 32.6639 45.6731 32.8299 43.8516 32.9776C43.8516 32.8352 50.3548 12.3369 50.4155 12.2209C52.2291 12.0733 54.1297 11.9256 56.0857 11.7648H56.0831Z" fill="white"/>
<path d="M126.746 14.6673C127.205 14.6435 129.501 14.4142 129.501 14.4142C129.501 14.4142 132.211 5.96549 132.317 5.64916C134.154 5.49363 136.049 5.35655 137.997 5.19312C135.857 12.134 133.724 19.0195 131.592 25.9366C129.694 26.0895 127.804 26.2424 125.805 26.4032C127 22.6072 128.165 18.8402 129.359 15.0363C129.108 15.1154 126.206 16.4387 126.206 16.4387C126.206 16.4387 123.338 25.7205 123.024 26.622C121.638 26.7327 117.528 27.0833 117.264 27.0833C117.299 26.9014 123.747 6.33191 123.747 6.33191C123.747 6.33191 129.085 5.90223 129.438 5.88114C128.542 8.77294 127.656 11.7175 126.741 14.662L126.746 14.6673Z" fill="white"/>
<path d="M1.0808 17.8174C0.869914 16.7418 0 12.0285 0 12.0285C0 12.0285 5.85215 6.11833 8.87576 3.53232C9.28172 3.18435 9.71404 2.85747 10.1701 2.58068C10.41 2.4357 10.7237 2.35661 11.0084 2.34871C11.6885 2.32498 12.0786 2.70458 12.1155 3.39524C12.134 3.73002 12.1103 4.07272 12.0654 4.40487C12.0154 4.79765 11.931 5.18779 11.8466 5.5753C11.5989 6.71409 11.069 7.69824 10.2571 8.52773C7.39691 11.4512 1.30487 17.6065 1.0808 17.8174Z" fill="white"/>
<path d="M83.5328 6.63507C90.102 5.91014 97.3328 4.03324 103.275 0C104.155 1.15725 104.959 2.30395 105.826 3.48756C105.639 3.59037 105.497 3.68527 105.344 3.75117C102.571 4.92951 99.7053 5.78097 96.7292 6.26075C93.1836 6.83014 85.2832 7.35473 84.097 7.42327C84.01 7.42854 83.923 7.39427 83.8597 7.331C83.72 7.19393 83.6356 7.13066 83.4801 6.72206C83.4643 6.68252 83.4907 6.63771 83.5328 6.63244V6.63507Z" fill="white"/>
<path d="M126.715 38.7194L94.7032 41.2275L94.7225 41.4746L126.735 38.9664L126.715 38.7194Z" fill="white"/>
<path d="M38.9503 45.5224L6.9538 48.0293L6.97315 48.2763L38.9697 45.7694L38.9503 45.5224Z" fill="white"/>
<path d="M43.5774 42.8815L45.652 42.7154C46.1318 42.6759 46.4903 42.7497 46.7249 42.9369C46.9595 43.1214 47.0913 43.414 47.1256 43.8094C47.1652 44.3103 46.9964 44.7558 46.6195 45.1459C46.2399 45.5308 45.7337 45.7469 45.1011 45.7997L43.9043 45.8946L43.4219 47.9085L42.3648 47.9929L43.5774 42.8815ZM44.102 45.0405L45.0457 44.964C45.3568 44.9403 45.6046 44.8428 45.7812 44.6767C45.9578 44.5106 46.0395 44.3076 46.0211 44.0704C45.9921 43.704 45.7759 43.5353 45.3752 43.5695L44.4315 43.646L44.102 45.0431V45.0405Z" fill="white"/>
<path d="M53.3073 42.0986L53.107 42.9448L50.6 43.1451L50.31 44.3735L52.1474 44.2259L51.9471 45.0721L50.1097 45.2197L49.7907 46.5615L52.3873 46.3533L52.187 47.1994L48.5359 47.4921L49.7486 42.3806L53.3099 42.0959L53.3073 42.0986Z" fill="white"/>
<path d="M59.4415 43.3295L58.3765 43.6906C58.3739 43.2768 58.308 42.9789 58.1815 42.7944C58.0549 42.6098 57.8414 42.5281 57.5435 42.5466C57.0031 42.5993 56.5576 42.8893 56.207 43.4165C55.8564 43.9437 55.7035 44.521 55.7562 45.151C55.7826 45.4674 55.8749 45.7046 56.033 45.8575C56.1912 46.013 56.4074 46.0789 56.6815 46.0552C57.0189 46.0289 57.3168 45.8971 57.5751 45.6624C57.8335 45.4278 58.0233 45.1168 58.1472 44.7345L59.1014 44.9507C58.9327 45.5095 58.6217 45.9735 58.1735 46.3426C57.728 46.7037 57.2272 46.904 56.6736 46.9489C55.4188 47.049 54.7413 46.4823 54.6438 45.2486C54.6148 44.8769 54.6596 44.4894 54.7782 44.0887C54.8995 43.688 55.0788 43.3137 55.3213 42.9631C55.5717 42.6046 55.8907 42.3067 56.2782 42.0694C56.6657 41.8348 57.0822 41.6951 57.5277 41.6556H57.5488L57.5646 41.6529C58.2289 41.6108 58.706 41.7373 58.996 42.0325C59.2833 42.3278 59.4336 42.7601 59.4441 43.3295H59.4415Z" fill="white"/>
<path d="M61.698 41.4262L66.1293 41.0703L65.9289 41.9165L64.3367 42.043L63.3245 46.3082L62.2674 46.3926L63.2797 42.1274L61.5029 42.2697L61.698 41.4235V41.4262Z" fill="white"/>
<path d="M70.3075 40.6302C70.9613 40.5775 71.4516 40.6909 71.7785 40.9677C72.1054 41.2445 72.2925 41.6794 72.34 42.2699C72.3821 42.7866 72.2846 43.3164 72.05 43.8647C71.8154 44.413 71.4621 44.8796 70.9956 45.2671C70.5237 45.6599 69.9991 45.8787 69.4244 45.9235C68.1644 46.0237 67.4869 45.478 67.392 44.2839C67.3498 43.7593 67.4447 43.2268 67.6767 42.689C67.9087 42.146 68.2619 41.6794 68.739 41.2866C69.2109 40.8938 69.7355 40.6751 70.3102 40.6302H70.3075ZM69.4271 45.0352C69.9622 44.993 70.4077 44.7057 70.7636 44.1705C71.1247 43.6433 71.2802 43.0607 71.2302 42.4254C71.1774 41.7769 70.8717 41.4738 70.3102 41.5186C69.7698 41.5608 69.319 41.8508 68.9578 42.3832C68.602 42.9157 68.4491 43.4983 68.4992 44.1257C68.5255 44.442 68.6178 44.6793 68.776 44.8322C68.9341 44.9851 69.1529 45.0536 69.4244 45.0299L69.4271 45.0352Z" fill="white"/>
<path d="M75.2686 40.3376L77.3433 40.1715C77.823 40.1319 78.1815 40.2057 78.4161 40.3929C78.6508 40.5801 78.7826 40.87 78.8168 41.2655C78.8564 41.7663 78.6877 42.2118 78.3107 42.602C77.9311 42.9868 77.425 43.203 76.7923 43.2557L75.5955 43.3506L75.1131 45.3646L74.056 45.449L75.2686 40.3376ZM75.7932 42.4965L76.737 42.4201C77.048 42.3963 77.2958 42.2988 77.4724 42.1327C77.649 41.9667 77.7308 41.7637 77.7123 41.5264C77.6833 41.16 77.4672 40.9913 77.0665 41.0256L76.1227 41.102L75.7932 42.4992V42.4965Z" fill="white"/>
<path d="M84.5688 44.6054L83.4907 44.6924L83.3615 43.5563L81.3607 43.7171L80.7465 44.9112L79.6314 45.0009L82.4969 39.755L83.8729 39.6443L84.5715 44.6028L84.5688 44.6054ZM83.0109 40.4931L81.8009 42.8498L83.2666 42.7312L83.0109 40.4905V40.4931Z" fill="white"/>
<path d="M90.5 41.1442L90.993 39.0775L92.0501 38.9932L90.8348 44.1046L89.7777 44.1889L90.2971 41.9904L88.2514 42.1539L87.7321 44.3524L86.675 44.4367L87.8877 39.3253L88.9447 39.241L88.4518 41.3077L90.4974 41.1442H90.5Z" fill="white"/>
</g>
<defs>
<clipPath id="clip0_1_96">
<rect width="138" height="48.2618" fill="white"/>
</clipPath>
</defs>
</svg>
