<svg width="224" height="215" viewBox="0 0 224 215" fill="none" xmlns="http://www.w3.org/2000/svg">
<g clip-path="url(#clip0_1_150)">
<path d="M97.1968 77.9514C96.4601 78.2373 95.7234 78.5231 95.0248 78.7963C94.8407 78.4469 94.6628 78.2627 94.6628 78.0784C94.6501 75.6391 95.5646 73.3967 96.3775 71.1733C97.0634 69.293 97.8255 67.33 99.0194 65.761C103.319 60.0882 106.85 53.939 110.457 47.8469C111.873 45.4521 113.423 43.1143 114.477 40.459C115.29 38.4199 116.63 36.5649 117.195 34.3797C120.173 31.1081 120.586 26.6106 123.006 22.7038C124.352 22.2528 125.679 20.6519 127.737 20.906C130.119 19.1591 133.154 18.9431 135.631 17.6155C137.034 16.9103 137.86 18.4985 138.94 18.4857C139.746 17.247 140.749 16.2497 140.286 14.5917C139.136 14.4138 137.943 14.2296 137.034 14.0898C135.25 14.6806 133.649 15.0363 132.214 15.7415C130.735 16.4657 129.026 16.3386 127.61 17.3359C126.238 18.3015 124.644 18.9431 123.158 19.7245C121.78 19.2163 120.529 19.5276 119.373 20.2835C118.198 21.0585 116.789 21.3571 115.874 22.7165C115.353 23.4852 113.918 23.771 112.838 23.9743C112.07 24.1204 111.689 24.5651 111.124 24.9399C109.25 26.1913 107.269 27.411 105.154 28.1352C103.586 28.6751 102.138 29.1008 101.001 30.3903C100.099 31.4131 98.8987 31.9657 97.8128 31.737C96.9681 32.4104 96.422 33.0457 95.7298 33.3633C93.3038 34.4813 90.4778 35.0467 88.471 36.6539C85.9815 38.6422 83.1237 39.7983 80.4819 41.3928C79.4912 41.99 78.4052 42.441 77.4081 43.0445C76.9573 43.3176 76.6334 43.7877 76.2714 44.1434C75.9221 44.0355 75.6173 43.9402 75.0711 43.7687C76.0682 39.7221 77.0589 35.6502 78.0877 31.5909C79.1355 27.4682 80.2215 23.3518 81.2884 19.229C82.9713 18.1935 84.4955 17.0882 85.3401 15.5954C87.004 12.6415 89.6776 10.1894 90.0269 6.43508C89.7601 5.92688 89.4172 5.27257 89.0743 4.61826C88.0264 4.84695 88.0391 5.79983 87.766 6.54942C86.8452 9.08406 85.6513 11.4472 83.6064 13.2576C83.6 13.4863 83.5492 13.7087 83.4984 13.931C83.4095 13.9056 83.3206 13.8738 83.2253 13.8484C83.3079 13.6388 83.3968 13.4292 83.4794 13.2132C83.5365 13.2322 83.5937 13.2449 83.6064 13.2576C83.6381 12.7494 83.6445 12.2222 83.8096 11.7521C84.9845 8.4107 86.1911 5.082 87.3723 1.74694C87.4295 1.58813 87.3088 1.36579 87.277 1.17522C86.7118 0.781361 86.1466 0.387507 85.5878 -0.00634766C84.8384 0.387507 84.089 0.781361 83.111 1.28956C81.1741 8.19471 79.1927 15.2714 77.2049 22.3481C77.0906 22.7546 76.8493 23.1548 76.8429 23.5614C76.8239 26.1468 76.246 28.618 75.4395 31.051C75.1092 32.0547 74.5567 33.0647 74.5377 34.0811C74.4551 38.4389 72.8928 42.4664 72.1498 46.2969C70.5368 47.4976 69.2984 48.5584 67.9266 49.4033C66.4025 50.3498 64.7577 51.0994 63.1637 51.938C63.0684 51.9888 62.9096 52.0205 62.8906 52.0904C62.5095 53.38 61.3156 53.7421 60.2995 54.1041C59.0421 54.5488 58.5086 55.7304 57.4798 56.372C55.5683 57.5599 53.6948 58.805 51.8277 60.0628C51.5166 60.2724 51.3769 60.7425 51.0657 60.9394C48.9001 62.2989 46.8425 63.9187 43.9656 64.122C43.7434 64.9034 43.502 65.7673 43.2036 66.8345C44.226 67.0442 45.0326 67.203 46.0169 67.4063C48.138 66.2946 50.5513 65.1765 52.8057 63.798C55.0348 62.4386 57.0924 60.8314 59.1183 59.1671C61.087 57.5472 63.405 56.3593 65.5769 54.9871C65.9325 54.7648 66.5358 54.6759 66.6629 54.3773C67.317 52.8019 68.9046 52.7447 70.4097 52.1921C70.1748 52.6113 69.9398 53.0242 69.5651 53.6849C65.0625 55.1777 61.83 59.2052 57.4862 61.4794C57.3719 61.8987 57.2702 62.2735 57.067 63.0358C59.1881 61.9177 61.0235 60.9204 62.8906 59.9866C64.7958 59.0337 66.5993 57.8204 69.0698 57.0009C68.8221 58.0554 68.7332 58.6525 68.5426 59.2116C66.8597 64.1474 65.1641 69.077 63.4748 74.0128C63.3034 74.5147 63.2462 75.0737 62.9858 75.5184C61.4426 78.1991 60.2678 81.0323 59.4295 84.0117C59.0548 84.2086 58.6864 84.3992 58.4705 84.5135C57.6513 86.4447 57.0289 88.325 56.0827 90.0148C55.2952 91.4123 54.6601 92.9242 53.7964 94.2201C52.1072 96.7548 51.7325 100.179 48.754 101.849C48.6143 101.926 48.6016 102.218 48.5127 102.402C47.8713 103.781 47.2299 105.153 46.5694 106.569C45.947 106.995 45.3564 107.421 44.7785 108.075C41.6794 111.607 38.8597 115.38 35.1763 118.436C33.2203 120.056 31.3977 121.968 29.3147 123.422C27.0475 125.004 24.9582 126.885 22.3163 127.958C20.3666 128.752 18.5377 129.858 16.6833 130.88C14.4415 132.119 11.933 132.507 9.51974 133.161C8.59889 133.409 7.49388 133.04 6.61114 133.351C5.01713 133.91 3.63269 133.536 2.3308 133.047C1.68939 131.941 1.12418 130.969 0.463713 129.832C0.247791 130.518 0.127129 130.918 0.0128174 131.274C0.654233 132.5 1.28295 133.694 2.02597 135.111C4.82661 134.965 7.7098 135.073 10.4914 134.603C13.4508 134.101 16.2768 132.881 19.0584 131.725C21.1986 130.836 23.199 129.597 25.2566 128.517C26.3045 126.135 29.6005 126.599 30.6674 124.242C33.595 122.787 35.8559 120.494 38.0595 118.182C40.9554 115.132 44.0164 112.217 46.4742 108.774C47.3251 107.579 48.2587 106.436 49.0906 105.229C49.9861 103.933 50.7799 102.567 51.688 101.284C53.1296 99.264 54.3807 97.1423 55.5492 94.9506C57.1496 91.9459 58.8008 88.973 60.3376 85.9301C60.9981 84.6279 61.2394 83.2049 61.9761 81.9789C63.4939 79.4633 64.6243 76.7444 65.7166 74.0573C67.6409 69.312 69.1269 64.3952 70.7844 59.5419C71.1972 58.3413 71.5402 57.1152 71.9275 55.9083C72.0164 55.6224 72.1689 55.3619 72.2895 55.0824C72.7341 55.6033 72.8039 56.0099 72.7023 56.3656C71.5021 60.806 69.6159 65.0495 69.0126 69.6614C68.9237 70.3221 68.3775 70.9192 68.1299 71.5735C67.6472 72.844 66.9105 74.1272 66.8788 75.4231C66.8534 76.503 66.593 77.4432 66.3072 78.4024C65.018 82.7475 62.6238 86.7496 62.2682 91.3932C62.2428 91.7045 62.1666 92.0666 61.9824 92.2953C60.6869 93.8898 60.5408 95.9353 59.8232 97.7521C59.3406 98.9845 59.2389 100.344 58.2673 101.424C57.8482 101.894 57.8291 102.783 57.791 103.488C57.7719 103.831 58.1276 104.194 58.2673 104.46C59.15 104.39 59.8359 104.34 60.471 104.289C60.8774 103.673 61.1822 103.025 61.6458 102.529C62.8906 101.201 63.2081 99.1433 64.51 98.0697C66.8216 96.164 67.7234 93.5277 68.9237 91.0439C70.4669 87.8549 71.5529 84.4754 72.5753 81.0705C72.8547 80.1494 73.547 79.3489 74.0042 78.485C74.0106 78.2563 74.0614 78.034 74.1122 77.8116C74.2011 77.837 74.29 77.8688 74.3852 77.8942C74.3027 78.1039 74.2138 78.3135 74.1312 78.5295C74.0741 78.5104 74.0169 78.4977 74.0042 78.485C74.6139 79.4188 74.3979 80.4225 74.309 81.4008C73.9597 85.2504 73.7311 89.1127 73.1532 92.9496C72.969 94.1693 72.9563 95.8718 74.8171 96.4181C75.0267 96.4816 75.1219 96.9453 75.268 97.2248C73.0008 98.5906 71.9656 100.426 70.7463 102.072C70.6701 102.173 71.0893 102.637 71.4068 103.126C72.8484 101.106 74.1376 99.3084 75.8586 96.8945C75.8395 96.9072 75.8205 96.9136 75.8014 96.9263C76.9827 96.1767 77.8654 95.0904 78.8307 94.1058C80.3739 92.5367 81.8028 90.6818 84.3303 91.8252C86.4642 89.6336 88.3821 87.5246 89.4363 84.7867C89.4744 84.685 89.7983 84.6914 90.0777 84.6215C90.3 85.0408 90.5286 85.4854 90.7699 85.9428C89.957 87.6792 89.6755 88.9878 89.9253 89.8687C89.5252 90.5801 89.1886 91.1836 88.8838 91.7299C89.1886 92.308 89.4299 92.7717 89.6712 93.2291C89.6712 93.2291 89.6712 93.2291 89.6649 93.2291C89.3474 93.426 89.0298 93.623 88.598 93.8961C88.833 94.2773 89.0108 94.5695 89.233 94.9316C89.5823 94.3154 89.8427 93.8453 90.1094 93.3816C89.9697 93.3371 89.83 93.2863 89.6903 93.2418C89.938 92.6892 90.2365 92.1555 90.427 91.5838C90.8969 90.1799 91.5193 88.7887 91.7034 87.3404C91.9003 85.8221 92.7577 84.6024 93.0815 83.1668C93.4118 81.7057 94.2945 80.6258 95.7171 80.0287C96.1997 79.8317 96.6443 79.5459 97.1079 79.3045C96.7903 79.1838 96.4728 79.0631 96.1489 78.9487C96.6125 78.6438 97.0761 78.3452 97.5397 78.0403C97.4254 78.0086 97.3111 77.9768 97.1968 77.945V77.9514ZM115.328 28.313C116.623 26.6932 117.824 24.9145 120.364 24.2602C119.202 27.2839 118.116 30.1044 117.284 32.2833C115.283 34.7545 114.636 37.2446 113.308 39.3346C111.981 41.4182 110.768 43.5717 109.434 45.649C108.152 47.65 106.939 49.6892 105.764 51.7601C104.57 53.8691 102.995 55.7685 101.591 57.7568C101.388 57.6679 101.185 57.579 100.982 57.49C102.442 53.3863 103.541 49.1111 105.44 45.2234C108.304 39.36 111.213 33.4649 115.328 28.313ZM90.6619 81.4834C90.4905 80.81 90.1602 80.2129 90.319 80.0223C91.1382 79.0504 91.0112 77.3416 92.8148 76.7381C91.9511 78.3516 92.1226 80.0604 90.6556 81.4834H90.6619ZM93.2086 69.3628C91.3288 72.0118 89.6014 74.8133 88.1598 77.7608C87.9756 78.1356 87.7851 78.5676 87.7915 78.9678C87.8677 82.4108 85.8164 84.8947 83.8414 87.7469C83.6064 87.0227 83.2253 86.4637 83.2825 85.9492C83.5365 83.8465 83.9557 81.7629 84.2414 79.6666C84.3494 78.8979 84.2478 78.1039 84.2414 77.0875C83.4413 77.0366 82.6855 76.9858 81.6694 76.9223C80.8693 82.1885 80.1262 87.2578 76.3603 91.6791C76.5318 85.3139 77.0843 79.3553 77.5479 73.0473C77.3065 72.5899 76.881 71.7768 76.4302 70.9192C75.5538 71.3194 74.5123 71.3385 74.2709 72.4438C73.6105 72.5645 72.9627 72.6852 72.5563 72.7614C69.2603 79.495 68.1807 86.8957 64.2496 93.0894C63.9067 92.9814 63.7797 92.975 63.7162 92.9115C63.6781 92.8734 63.7289 92.7336 63.7543 92.6447C64.3195 90.8279 64.6116 88.8586 65.5134 87.226C67.0058 84.5262 67.4694 81.5151 68.5681 78.72C71.5719 71.0844 73.8454 63.2073 76.2841 55.3874C76.6778 54.1296 76.881 52.8209 77.1541 51.614C76.6143 51.2646 76.2142 51.0041 75.5982 50.6039C75.1981 50.5912 74.5059 50.5595 73.7946 50.5341C73.7756 50.28 73.7438 50.1211 73.7565 49.9623C73.82 48.8951 74.7726 48.7554 75.4585 48.3297C78.0051 46.7607 80.5009 45.1154 83.092 43.6353C85.664 42.1678 88.6107 41.2213 90.8779 39.3981C93.9389 36.9334 97.4889 35.4914 100.829 33.611C104.227 31.6989 107.726 29.9583 111.238 28.1161C111.06 29.088 109.885 31.9403 109.18 32.8233C107.58 34.818 106.945 37.2955 105.745 39.4934C104.913 41.0117 104.316 42.676 103.757 44.3213C103.116 46.2017 102.735 48.3043 101.82 49.9433C100.817 51.741 100.95 54.0089 99.3242 55.4636C99.6164 57.4201 98.2129 58.8431 97.7239 60.5583C96.803 63.7917 95.1582 66.6122 93.2022 69.3692L93.2086 69.3628Z" fill="#C4A46B"/>
<path d="M223.816 128.86C221.485 127.482 218.983 126.326 216.335 125.964C210.911 125.227 205.443 124.826 199.995 124.299C198.909 124.191 197.727 123.81 196.749 124.102C195.206 124.566 193.784 124.02 192.317 124.077C190.742 124.14 189.198 124.344 187.592 124.064C185.756 123.747 183.775 123.727 181.99 123.861C178.955 124.09 175.951 124.369 172.89 124.229C171.245 124.153 169.581 124.61 167.924 124.623C163.015 124.649 158.118 125.125 153.184 124.661C149.24 124.286 146.217 123.073 144.839 119.109C144.807 119.008 144.744 118.919 144.693 118.83C143.08 115.736 140.514 113.754 137.295 112.592C133.497 111.219 129.629 111.848 125.787 112.35C120.504 113.043 115.575 115.069 110.609 116.841C108.609 117.553 106.456 117.801 104.614 119.141C103.992 117.902 104.64 117.057 104.906 116.219C105.179 115.368 105.7 114.599 106.1 113.792C106.545 112.89 107.072 112.013 107.402 111.067C109.104 106.233 110.806 101.392 112.387 96.5198C113.054 94.4679 113.416 92.3144 113.912 90.2054C114.731 86.7496 115.626 83.3383 115.893 79.7365C116.058 77.5195 115.848 75.7344 114.642 74.0447C111.549 71.8276 108.412 71.961 105.198 73.6317C104.582 73.9494 104.055 74.4322 103.179 74.2606C102.677 74.159 101.769 74.4957 101.54 74.9086C100.817 76.2236 99.4829 76.5539 98.3652 77.2463C98.2127 77.3416 98.1429 77.5703 98.0095 77.7736C98.1746 77.9959 98.3461 78.2309 98.5747 78.5295C100.944 77.4178 103.122 76.0711 105.675 75.474C107.961 74.934 110.133 74.2606 112.438 75.2008C113.238 76.5285 113.492 77.907 113.588 79.5014C113.715 81.5406 112.807 83.3066 112.749 85.1806C112.616 89.1255 111.689 92.8544 110.527 96.5769C108.99 101.513 107.313 106.392 105.065 111.061C104.322 112.611 103.687 114.224 102.874 115.736C102.074 117.216 101.115 118.614 100.258 119.986C100.702 120.831 101.064 121.523 101.458 122.273C102.442 122.254 103.363 122.4 104.208 122.197C106.748 121.58 109.295 121.015 111.67 119.795C113.759 118.722 115.931 117.604 118.198 117.14C120.834 116.6 123.298 115.558 125.94 115.037C129.325 114.37 132.633 113.748 135.948 115.018C137.517 115.622 138.971 116.517 140.032 117.051C142.153 120.265 142.966 123.639 145.512 125.76C146.795 126.396 147.919 127.253 149.164 127.507C151.603 127.996 154.111 128.301 156.594 128.397C159.331 128.505 162.081 128.327 164.825 128.206C169.321 128.009 173.811 127.901 178.294 127.31C180.885 126.967 183.591 126.974 186.201 127.018C188.449 127.063 190.748 127.183 193.015 127.215C198.851 127.304 204.675 127.298 210.473 128.111C213.547 128.543 216.703 128.181 219.726 129.267C221.009 129.724 222.469 129.667 223.987 129.864C223.911 129.4 223.962 128.956 223.803 128.86H223.816Z" fill="#C4A46B"/>
<path d="M65.037 191.68C63.3159 196.038 61.5505 200.332 59.0801 204.309C57.34 207.104 55.3522 209.715 52.2658 211.214C51.3132 211.678 50.3924 212.192 49.4779 212.669C48.4554 212.351 47.4457 212.033 46.347 211.69C45.2293 208.794 43.3368 206.208 42.435 203.026C41.438 199.481 40.7965 195.917 40.2885 192.315C40.0408 190.581 40.0535 188.802 40.0345 187.049C40.0154 185.378 40.2821 183.689 40.117 182.043C39.9329 180.226 41.1331 178.53 40.4219 176.72C41.4126 172.019 42.2381 167.28 43.4511 162.636C44.6768 157.936 46.328 153.349 47.7187 148.693C48.1696 147.187 48.6523 145.637 49.2493 144.259C50.5448 141.248 51.9737 138.306 52.9072 135.149C53.0469 134.673 53.3708 134.247 53.5296 133.771C53.917 132.634 54.2663 131.484 54.6283 130.334C54.6537 130.34 54.6854 130.353 54.7108 130.359C54.7934 130.15 54.8823 129.94 54.9648 129.724C54.8759 129.699 54.787 129.667 54.6918 129.642C54.641 129.864 54.5901 130.086 54.5393 130.309C54.5647 130.315 54.5901 130.328 54.6156 130.334C54.152 130.575 53.682 130.823 53.2184 131.071C53.193 131.662 53.3264 132.322 53.0977 132.824C52.7802 133.523 52.0816 134.038 51.7641 134.736C51.4148 135.499 51.4275 136.42 51.0909 137.182C50.6146 138.275 49.9224 139.266 49.4017 140.339C48.8809 141.419 47.9283 142.639 48.1061 143.623C48.3856 145.18 46.9567 145.701 46.817 146.927C46.6455 148.432 45.6802 149.798 45.8707 151.183C45.3881 151.742 44.861 152.123 44.645 152.638C43.7051 154.867 43.3749 157.288 42.543 159.568C42.0857 160.826 42.1175 162.179 41.3491 163.481C40.6124 164.726 40.8601 166.524 40.2694 167.903C39.3867 169.961 39.755 172.362 38.3579 174.236C38.7072 176.669 37.8308 179 37.7228 181.37C37.4752 186.642 37.5006 191.953 38.288 197.2C39.0374 202.181 40.0345 207.117 42.7081 211.512C42.924 211.875 43.1018 212.262 43.3241 212.675C44.753 213.501 46.22 214.346 47.3631 215.006C48.7476 214.67 49.7637 214.568 50.6591 214.174C53.9551 212.726 56.489 210.35 58.6038 207.46C60.039 205.497 60.8201 203.146 62.1157 201.209C63.4938 199.144 64.2685 196.895 65.2846 194.748C66.6119 191.947 67.1835 188.847 68.4854 185.975C69.7809 183.104 70.4731 179.96 71.3622 176.917C71.4829 176.498 71.2225 175.958 71.1336 175.475C69.7872 177.342 69.203 179.521 68.479 181.662C67.3486 185.01 66.3325 188.383 65.0243 191.693L65.037 191.68Z" fill="#C4A46B"/>
<path d="M58.6038 51.9188C58.5149 51.7028 58.4386 51.5186 58.2862 51.1501C52.4373 52.3508 47.7823 55.7811 42.8161 59.3131C43.521 59.6942 43.9592 59.9229 44.6641 60.3041C49.3191 57.3946 54.66 55.8192 58.6038 51.9252V51.9188Z" fill="#C4A46B"/>
<path d="M88.2422 97.5806C87.6135 98.8193 87.0673 99.8929 86.4831 101.055C86.7117 101.487 86.9403 101.926 87.1563 102.339C86.8514 102.612 86.4894 102.777 86.4386 103.012C86.0639 104.791 85.702 106.576 85.4479 108.373C85.3717 108.913 85.4987 109.485 85.6385 110.482C83.8793 111.753 84.2985 113.494 84.724 115.234C84.6986 115.228 84.6732 115.215 84.6414 115.209C84.5588 115.418 84.4699 115.628 84.3874 115.844C84.4763 115.869 84.5652 115.901 84.6605 115.927C84.7113 115.704 84.7621 115.482 84.8129 115.26C84.7875 115.253 84.7557 115.24 84.7303 115.234C85.1939 113.995 85.702 112.769 86.0893 111.505C86.1656 111.264 86.0004 110.946 85.8671 110.641C87.0229 106.271 88.0072 102.542 89.0106 98.7558C88.7884 98.4127 88.5217 98.0062 88.2486 97.5869L88.2422 97.5806Z" fill="#C4A46B"/>
<path d="M59.0674 121.911C58.572 121.968 58.2799 122.006 58.0957 122.025C57.0606 124.267 56.0699 126.408 55.041 128.632C55.3522 128.784 55.5936 128.905 56.0318 129.121C57.0479 126.713 58.0259 124.382 59.0674 121.911Z" fill="#C4A46B"/>
<path d="M62.7444 114.122C61.7727 115.711 60.8265 117.311 59.9438 118.95C59.785 119.243 59.9755 119.725 60.0327 120.456C60.9599 119.033 61.7029 118.023 62.3062 116.93C62.8714 115.895 63.3159 114.783 64.0526 113.144C64.2685 112.973 64.4781 112.801 64.694 112.63C64.6178 112.515 64.5353 112.401 64.4591 112.293C64.1161 112.515 63.7732 112.731 63.4303 112.954C63.5001 113.068 63.5636 113.182 63.6335 113.297C63.1508 113.703 62.9032 113.881 62.7571 114.122H62.7444Z" fill="#C4A46B"/>
<path d="M69.7047 103.685C68.9236 104.517 68.2695 105.21 67.5963 105.934C67.7932 106.175 67.9773 106.404 68.225 106.709C69.0252 105.915 69.7555 105.197 70.5747 104.384C70.2381 104.117 69.9651 103.895 69.6983 103.685H69.7047Z" fill="#C4A46B"/>
<path d="M65.4434 110.889C66.3706 110.146 67.2089 109.39 67.355 108.107C65.4625 108.259 65.5958 109.714 65.4434 110.889Z" fill="#C4A46B"/>
<path d="M77.5414 150.56C77.8335 149.982 78.0494 149.544 78.6464 148.356C77.4906 148.629 77.1095 148.724 76.5126 148.864C76.9635 149.601 77.2556 150.084 77.5414 150.554V150.56Z" fill="#C4A46B"/>
<path d="M82.8886 121.911C82.7807 122.628 82.0059 123.257 83.1681 123.982C83.276 123.264 84.0508 122.635 82.8886 121.911Z" fill="#C4A46B"/>
<path d="M82.6727 119.179C82.8696 119.554 83.0665 119.929 83.3014 120.373C83.6634 120.081 83.8857 119.897 84.2159 119.63C83.9302 119.281 83.7015 119.008 83.492 118.753C83.1744 118.919 82.9903 119.014 82.6791 119.179H82.6727Z" fill="#C4A46B"/>
<path d="M80.1642 138.808C80.2214 138.059 80.2531 137.601 80.2849 137.233C79.6583 137.411 79.6181 137.936 80.1642 138.808Z" fill="#C4A46B"/>
<path d="M78.3479 147.657C78.4051 146.908 78.4368 146.45 78.4686 146.082C77.842 146.26 77.8018 146.785 78.3479 147.657Z" fill="#C4A46B"/>
<path d="M81.3962 129.966C81.3454 130.188 81.2946 130.404 81.2438 130.626C81.1613 130.836 81.0787 131.045 80.9898 131.255C81.0787 131.281 81.1676 131.312 81.2629 131.338C81.3137 131.115 81.3645 130.899 81.4153 130.677C81.4979 130.467 81.5804 130.258 81.6693 130.048C81.5804 130.023 81.4915 129.991 81.3962 129.966Z" fill="#C4A46B"/>
<path d="M76.557 152.53C76.6523 152.72 76.7539 152.904 76.8492 153.095C76.9127 153.063 76.9762 153.031 77.0333 153C76.9381 152.809 76.8365 152.625 76.7412 152.434C76.6777 152.466 76.6142 152.498 76.557 152.53Z" fill="#C4A46B"/>
<path d="M75.9601 157.44C75.8712 157.415 75.7823 157.383 75.687 157.357C75.6362 157.58 75.5854 157.802 75.5346 158.024L75.6108 158.05C74.9757 158.272 74.5439 158.672 74.4994 159.384C74.4613 159.968 74.5439 160.584 74.4042 161.137C73.5024 164.637 72.6006 168.138 71.6035 171.619C71.2415 172.896 70.9748 174.147 71.1336 175.468C71.413 175.322 71.8703 175.233 71.9401 175.017C72.4736 173.436 73.1277 171.854 73.35 170.221C73.6548 168.023 73.858 165.819 74.5566 163.691C75.0138 162.293 75.4838 160.896 75.8394 159.473C75.9474 159.047 75.6997 158.526 75.6108 158.05C75.6362 158.056 75.6616 158.069 75.6933 158.075C75.7759 157.866 75.8648 157.656 75.9474 157.44H75.9601Z" fill="#C4A46B"/>
</g>
<defs>
<clipPath id="clip0_1_150">
<rect width="224" height="215" fill="white"/>
</clipPath>
</defs>
</svg>
